<?xml version="1.0" encoding="UTF-8" standalone="no"?>
<!-- Created with Inkscape (http://www.inkscape.org/) -->

<svg
   xmlns:dc="http://purl.org/dc/elements/1.1/"
   xmlns:cc="http://creativecommons.org/ns#"
   xmlns:rdf="http://www.w3.org/1999/02/22-rdf-syntax-ns#"
   xmlns:svg="http://www.w3.org/2000/svg"
   xmlns="http://www.w3.org/2000/svg"
   xmlns:sodipodi="http://sodipodi.sourceforge.net/DTD/sodipodi-0.dtd"
   xmlns:inkscape="http://www.inkscape.org/namespaces/inkscape"
   id="svg1340"
   sodipodi:docname="EFL-bodychart-notext.svg"
   viewBox="0 0 1769.7085 1512.4828"
   sodipodi:version="0.32"
   version="1.0"
   inkscape:version="0.91 r13725"
   width="1769.7085"
   height="1512.4828">
  <defs
     id="defs22761" />
  <sodipodi:namedview
     id="base"
     bordercolor="#666666"
     inkscape:pageshadow="2"
     inkscape:window-y="1"
     pagecolor="#ffffff"
     inkscape:zoom="0.30323572"
     inkscape:window-x="4"
     borderopacity="1.0"
     inkscape:current-layer="svg1340"
     inkscape:cx="595.55431"
     inkscape:cy="858.55849"
     inkscape:window-height="1035"
     inkscape:pageopacity="0.0"
     inkscape:window-width="1916"
     showgrid="false"
     fit-margin-top="0"
     fit-margin-left="0"
     fit-margin-right="0"
     fit-margin-bottom="0"
     inkscape:window-maximized="1" />
  <metadata
     id="metadata22759">
    <rdf:RDF>
      <cc:Work>
        <dc:format>image/svg+xml</dc:format>
        <dc:type
           rdf:resource="http://purl.org/dc/dcmitype/StillImage" />
        <cc:license
           rdf:resource="http://creativecommons.org/publicdomain/zero/1.0/" />
        <dc:publisher>
          <cc:Agent
             rdf:about="http://openclipart.org/">
            <dc:title>Openclipart</dc:title>
          </cc:Agent>
        </dc:publisher>
        <dc:title></dc:title>
        <dc:date>2006-11-05T09:22:47</dc:date>
        <dc:description>A line-drawing of a human male in a standing position with hands at the side.\n\nFound at http://commons.wikimedia.org/wiki/Image:Line-drawing_of_a_human_man.svg</dc:description>
        <dc:source>https://openclipart.org/detail/1288/line-drawing-of-a-human-man-by-liftarn</dc:source>
        <dc:creator>
          <cc:Agent>
            <dc:title>liftarn</dc:title>
          </cc:Agent>
        </dc:creator>
        <dc:subject>
          <rdf:Bag>
            <rdf:li>contour</rdf:li>
            <rdf:li>line art</rdf:li>
            <rdf:li>man</rdf:li>
            <rdf:li>naked</rdf:li>
            <rdf:li>nude</rdf:li>
            <rdf:li>outline</rdf:li>
            <rdf:li>people</rdf:li>
            <rdf:li>standing</rdf:li>
            <rdf:li>wikimedia commons</rdf:li>
          </rdf:Bag>
        </dc:subject>
      </cc:Work>
      <cc:License
         rdf:about="http://creativecommons.org/publicdomain/zero/1.0/">
        <cc:permits
           rdf:resource="http://creativecommons.org/ns#Reproduction" />
        <cc:permits
           rdf:resource="http://creativecommons.org/ns#Distribution" />
        <cc:permits
           rdf:resource="http://creativecommons.org/ns#DerivativeWorks" />
      </cc:License>
    </rdf:RDF>
  </metadata>
  <g
     id="g23435"
     transform="translate(281.82116,156.06109)">
    <path
       id="path23379"
       d="m 134,43 0,24 -6,20 18,46 14,36 0,26 -68,32 -24,0 -18,12 -22,38 -2,52 -6,14 -6,60 -6,36 -4,36 20,136 12,62 26,48 8,20 10,54 0,52 -6,16 -14,46 6,68 18,94 -2,40 -6,12 -26,62 2,12 26,22 14,0 12,-16 10,-10 4,-28 18,-18 -6,-28 0,-74 10,-24 0,-38 18,-52 -4,-58 6,-20 4,-30 6,-86 18,-66 10,-6 16,36 12,92 6,44 6,34 -4,20 2,40 12,40 0,28 10,44 4,60 -6,44 18,18 0,28 14,12 4,12 8,2 14,4 12,-12 16,-18 -38,-86 2,-32 16,-96 0,-76 -14,-46 2,-38 6,-28 10,-56 -4,-18 30,-30 8,-28 0,-38 14,-62 10,-78 -10,-62 -2,-58 -10,-36 0,-38 -8,-28 -28,-28 -24,-6 -56,-38 -2,-56 16,-18 8,-40 2,-12 -12,-16 -124,-2 z m 174,352 2,24 12,26 2,14 2,50 -2,82 -10,14 -6,-64 -12,-30 10,-10 -2,-10 -10,-46 10,-34 4,-16 z m -228,2 4,16 8,24 -2,22 -8,42 6,14 -2,8 -10,28 -2,54 -10,-10 -8,-60 8,-48 -2,-38 18,-52 z"
       style="opacity:1;fill:#f6e5ce;fill-opacity:1;fill-rule:evenodd;stroke:none;stroke-width:1px;stroke-linecap:butt;stroke-linejoin:miter;stroke-opacity:1"
       inkscape:connector-curvature="0" />
    <path
       inkscape:connector-curvature="0"
       id="path23396"
       d="m 206.08441,4.0320134 -9.76924,1.3956055 -18.60807,11.6300461 -18.14287,3.256412 -10.69964,16.282065 -14.88646,10.23444 -1.86081,13.956055 -6.97803,24.190495 9.30404,13.490853 3.25641,-9.304037 6.51283,-11.630045 10.23444,5.11722 20.00368,-13.025652 17.21246,-9.769238 9.76924,6.047624 12.56045,-2.326009 8.83884,-7.908431 1.8608,16.282064 7.44323,13.490853 20.00368,19.073276 13.02565,-5.117221 7.44323,-18.142872 -0.4652,-14.421257 -13.95605,-22.794889 -13.95606,-20.003679 -9.76924,-1.860807 -7.44323,-8.838835 -12.09524,-8.3736329 z"
       style="fill:#524c44;fill-opacity:1;fill-rule:evenodd;stroke:none;stroke-width:1px;stroke-linecap:butt;stroke-linejoin:miter;stroke-opacity:1" />
    <path
       d="m 78.258,1220.8 c -2.015,-0.4 -4.812,-1.4 -6.215,-2.3 -1.403,-0.9 -4.069,-1.7 -5.925,-1.7 -2.569,0 -4.118,-0.8 -6.492,-3.4 -1.715,-1.9 -3.7,-3.8 -4.411,-4.3 -2.14,-1.3 -5.396,-6.5 -6.765,-10.8 -0.709,-2.2 -1.751,-4.6 -2.316,-5.3 -2.066,-2.6 -0.964,-9.7 2.695,-17.4 1.976,-4.2 3.593,-8 3.593,-8.5 0,-0.5 1.622,-3.6 3.604,-6.8 1.982,-3.3 5.839,-11.2 8.572,-17.5 5.455,-12.6 11.497,-25 14.167,-29.1 0.944,-1.4 1.722,-3.9 1.729,-5.5 0.108,-27 -0.766,-40.4 -3.3,-50.4 -5.061,-20 -9.944,-45.6 -11.819,-61.98 -0.597,-5.23 -1.972,-14.9 -3.055,-21.5 -2.493,-15.19 -3.89,-37.35 -2.806,-44.5 0.458,-3.03 1.524,-12.25 2.368,-20.5 0.844,-8.25 2.256,-18.6 3.138,-23 1.852,-9.24 6.832,-25.4 9.399,-30.5 1.552,-3.09 1.641,-4.63 0.748,-13 -0.557,-5.23 -1.072,-19.47 -1.145,-31.65 -0.129,-21.64 -0.192,-22.28 -2.769,-28 -2.777,-6.16 -4.009,-10.32 -5.73,-19.35 -0.577,-3.03 -1.976,-9.97 -3.109,-15.43 -1.133,-5.47 -2.338,-14.8 -2.678,-20.74 l -0.618,-10.81 -6.9,-6.13 c -5.789,-5.15 -7.69,-7.71 -11.808,-15.92 -2.7,-5.38 -6.257,-11.91 -7.906,-14.51 -1.649,-2.6 -3.236,-6.58 -3.527,-8.84 -2.73,-21.27 -3.555,-30.21 -3.555,-38.54 0,-5.9 -0.579,-11.47 -1.474,-14.15 -1.346,-4.04 -4.452,-21.18 -8.063,-44.47 -0.77,-4.97 -2.02,-10.82 -2.777,-13 -0.757,-2.18 -2.366,-9.14 -3.5753,-15.46 -1.2095,-6.33 -3.0605,-15.33 -4.1133,-20 -4.9988,-22.2 -5.3514,-25.16 -5.417,-45.5 -0.065739,-20.38 1.2194,-31.04 5.0473,-41.85 4.4927,-12.69 5.6273,-21.57 5.5153,-43.15 -0.169,-32.75 3.098,-59.94 8.697,-72.41 1.78,-3.96 1.926,-5.92 1.452,-19.5 -0.638,-18.28 0.854,-26.89 6.738,-38.9 2.184,-4.45 3.97,-8.51 3.97,-9.01 0,-2.44 9.731,-16.07 15.266,-21.38 9.419,-9.05 13.402,-10.76 28.734,-12.33 14.632,-1.5 15.097,-1.64 29.618,-9.03 7.5,-3.82 14.6,-6.94 15.78,-6.94 1.19,0 3.04,-0.61 4.13,-1.35 1.08,-0.75 4.45,-2.13 7.47,-3.07 8.28,-2.59 18.13,-7.87 20.44,-10.97 1.78,-2.37 2.11,-4.5 2.38,-15.43 0.31,-12.12 0.19,-13.06 -2.78,-21.1 -1.86,-5.04 -4.48,-9.94 -6.52,-12.2 -1.88,-2.07 -3.93,-5.71 -4.57,-8.08 -0.64,-2.36 -2.19,-6.1 -3.46,-8.3 -1.26,-2.2 -2.62,-6.03 -3.01,-8.5 -0.4,-2.48 -1.79,-6.52 -3.1,-8.99 -1.31,-2.48 -2.38,-5.47 -2.38,-6.65 0,-1.189 -1.35,-4.726 -3,-7.863 -3.82,-7.272 -3.85,-11.887 -0.11,-22.67 2.31,-6.679 2.79,-9.519 2.43,-14.33 -0.54,-7.254 2.32,-13.821 7.4,-16.992 1.77,-1.104 4.65,-2.908 6.39,-4.008 2,-1.256 4.53,-4.604 6.82,-9 3.04,-5.855 4.37,-7.361 8.11,-9.209 2.85,-1.412 6.38,-2.223 9.78,-2.25 5.87,-0.045 7.79,-0.827 13.68,-5.5758 5.66,-4.5623 11.09,-7.0865 18.28,-8.5005 12.35,-2.431 22.64,1.0897 32.21,11.026 3.19,3.305 6.63,6.019 7.65,6.031 6.71,0.079 14.47,7.324 17.99,16.804 0.96,2.571 2.93,6.474 4.38,8.674 5.31,8.029 11.98,21.357 13.37,26.694 1.81,6.952 0.87,12.365 -3.85,22.186 -2.83,5.878 -3.53,8.513 -3.53,13.323 0,8.38 -1.49,12.1 -6.93,17.3 -3.11,2.96 -5.32,6.21 -6.46,9.5 -0.96,2.75 -2.44,6.35 -3.28,8 -2.91,5.64 -4.33,13.59 -4.33,24.2 0,9.77 0.2,10.87 2.5,13.89 1.38,1.8 2.5,3.71 2.5,4.25 0,1.48 9.92,10.07 14.1,12.2 2.03,1.04 4.33,2.53 5.1,3.3 0.78,0.78 3.48,2.7 6,4.28 2.52,1.58 7.63,5.58 11.35,8.88 3.72,3.3 7.48,6.49 8.36,7.09 2.4,1.65 10.4,3.41 15.49,3.41 6.63,0 14.54,1.87 19.21,4.55 5.71,3.28 18.35,17.12 21.54,23.58 7.12,14.4 11.71,24.65 12.28,27.37 1.62,7.86 2.38,24.51 1.45,32.09 -0.93,7.57 -0.83,8.45 1.46,13.63 5.45,12.34 8.73,37.79 8.66,67.28 -0.05,24.41 0.38,29.45 3.45,40.5 6.5,23.34 7.04,27.08 7.04,49 0,20.98 -0.47,25.1 -4.99,44.5 -1.29,5.5 -3.09,14.25 -4.02,19.45 -0.92,5.19 -2.72,13.29 -4,18 -1.28,4.7 -3.72,17.55 -5.43,28.55 -1.71,11 -3.99,23.43 -5.08,27.62 -1.24,4.81 -1.97,10.9 -1.97,16.53 0,4.89 -0.89,16.03 -1.98,24.74 -1.61,12.77 -2.47,16.63 -4.46,19.97 -1.36,2.27 -4.85,8.82 -7.76,14.54 -4.49,8.82 -6.36,11.36 -12.39,16.78 l -7.11,6.38 -0.62,10.85 c -0.59,10.35 -5.95,40.19 -9.05,50.39 -0.8,2.63 -2.28,6.01 -3.27,7.5 -1.61,2.39 -1.82,5.14 -1.85,24.2 -0.03,11.82 -0.43,26 -0.91,31.5 -0.86,9.93 -0.84,10.08 2.7,20 6.38,17.85 7.69,24.46 11.63,58.5 1.6,13.82 1.76,18.85 0.98,30.98 -0.51,7.97 -1.57,18.09 -2.36,22.5 -0.78,4.41 -1.95,12.07 -2.59,17.02 -3.49,26.78 -6.73,44.18 -12.66,67.98 -2.18,8.8 -2.53,12.7 -2.83,31.5 -0.35,21.3 -0.32,21.6 2.03,25 2.59,3.8 9.05,17.3 15.1,31.5 2.11,5 4.85,10.6 6.09,12.5 1.24,1.9 3.37,6.3 4.73,9.6 1.37,3.4 3.37,7.7 4.46,9.5 3.37,5.8 3.52,9.7 0.67,17.2 -2.58,6.8 -5.94,12.5 -8.31,14 -0.7,0.5 -1.82,1.5 -2.5,2.3 -3.62,4.5 -4.98,5.4 -7.78,5.4 -1.67,0 -4.81,0.9 -6.97,2 -4.58,2.4 -9.82,2.7 -15.61,1.1 -6.05,-1.6 -8.7,-4.2 -11.73,-11.3 -2.37,-5.6 -3.29,-6.7 -7.25,-8.6 -6.88,-3.4 -8.96,-8.6 -8.64,-21.9 l 0.24,-10.1 -4.75,-4.5 c -2.61,-2.5 -6.64,-5.9 -8.96,-7.6 -7.8,-5.6 -8.69,-10.2 -5.15,-26.1 1.53,-6.9 2.34,-15.3 2.93,-30.5 0.45,-11.5 1.1,-24.5 1.44,-28.8 0.46,-5.7 0.21,-9 -0.9,-12.5 -0.84,-2.6 -2.24,-9 -3.11,-14.2 -0.88,-5.2 -2.45,-12.9 -3.49,-17 -2.78,-10.9 -4.83,-24.9 -5.57,-37.98 -0.51,-9.02 -1.29,-13.34 -3.63,-20 -1.63,-4.68 -4.49,-14.59 -6.35,-22.04 -5.9,-23.58 -6.78,-39.66 -3.39,-61.46 3.48,-22.4 3.5,-21.12 -0.32,-29.5 -1.88,-4.13 -3.98,-10.43 -4.66,-14 -0.69,-3.58 -1.66,-8.66 -2.17,-11.29 -1.53,-7.99 -5.79,-55.92 -6.87,-77.28 -0.72,-14.29 -1.72,-23.35 -3.46,-31.5 -2.75,-12.85 -14.97,-50.58 -17.17,-53.01 -0.78,-0.87 -1.08,-1.96 -0.67,-2.41 1.09,-1.21 -1.94,0.53 -3.96,2.26 -2.18,1.87 -15.07,41.51 -17.77,54.65 -1.26,6.11 -2.44,17.62 -3.07,29.99 -1.2,23.34 -5.4,68.49 -7.44,80.09 -2.41,13.64 -2.73,14.79 -6.24,22.5 -3.85,8.46 -3.84,7.97 -0.39,30 1.16,7.42 2.11,16.65 2.1,20.5 -0.03,17.39 -3.93,38.54 -10.96,59.5 -3.11,9.26 -3.97,13.54 -4.47,22 -0.79,13.58 -3.28,30.88 -5.53,38.48 -0.98,3.3 -2.54,10.7 -3.47,16.5 -0.93,5.8 -2.34,12.6 -3.13,15.1 -0.91,2.8 -1.28,7 -1.01,11.5 0.24,3.8 0.74,15.9 1.11,26.9 0.51,14.9 1.31,23.1 3.08,32.1 1.32,6.7 2.4,13.6 2.4,15.3 0,4.4 -2.39,8.6 -6.47,11.4 -1.89,1.3 -6,4.7 -9.12,7.6 l -5.68,5.3 0.54,7.9 c 0.56,8.1 -0.68,15.4 -3.36,19.7 -0.77,1.2 -3.25,3.1 -5.51,4.2 -3.99,1.8 -6.63,5.7 -8.827,12.7 -1.519,4.9 -12.516,9.5 -19.735,8.3 z m 13.004,-7.8 c 1.287,-0.9 3.56,-4.6 5.052,-8.1 2.375,-5.6 3.266,-6.7 7.156,-8.5 6.88,-3.2 8.28,-6.8 7.33,-18.6 -2.22,-27.6 0.1,-41.4 9.17,-54.6 1.93,-2.8 3.95,-6.6 4.48,-8.5 1.42,-4.9 1.19,-19 -0.63,-39.4 -2.05,-23.1 -1.55,-50.8 0.97,-53.3 1.42,-1.4 1.98,-1.4 3.78,-0.3 3.32,2.1 3.71,1.2 6.31,-14.8 1.75,-10.69 2.04,-24.66 0.54,-25.58 -0.55,-0.34 -1,-1.39 -1,-2.33 0,-1.96 5.57,-15.59 7.7,-18.84 1.58,-2.41 6.65,-22.28 8.25,-32.33 1.29,-8.12 1.37,-31.3 0.12,-37.7 -0.52,-2.64 -1.21,-6.49 -1.55,-8.55 -0.33,-2.07 -1.03,-3.75 -1.55,-3.75 -1.5,0 -9.49,16.75 -11.93,25 -3.17,10.71 -5.13,14.44 -7.79,14.82 -1.88,0.26 -2.24,-0.15 -2.23,-2.5 0.01,-1.55 1.13,-6.59 2.48,-11.19 3.48,-11.87 7.1,-20 21.13,-47.45 3.61,-7.06 4.9,-11.06 6.47,-20 2.68,-15.29 5.69,-46.19 7.41,-76.18 1.88,-32.9 3.59,-42.89 11.02,-64.5 4.47,-13.01 7.42,-23.71 7.45,-27.02 0.02,-2.16 -0.68,-2.71 -5.07,-4 -4.58,-1.33 -5.47,-2.09 -8.75,-7.41 l -3.66,-5.93 0.27,-16.57 c 0.17,-9.85 -0.2,-18.93 -0.9,-22.39 -0.98,-4.89 -0.94,-6.04 0.3,-7.28 2.08,-2.07 4.55,-0.79 5.8,3 1.74,5.26 2.77,16.59 1.91,20.99 -1.27,6.58 -1,17.39 0.53,21.05 2.36,5.63 4.98,7.56 10.3,7.56 l 4.71,0 -4.09,-4.25 c -5.95,-6.18 -8.16,-14.8 -6.11,-23.81 0.68,-3 1.24,-9.04 1.26,-13.44 0.02,-7.34 0.19,-8.03 2.11,-8.3 3.49,-0.5 4.88,2.4 4.89,10.18 0,3.92 -0.46,9.59 -1.03,12.62 -1.91,10.13 1.12,18.42 6.49,17.79 4.49,-0.52 5.54,-4.56 4.12,-15.74 -0.67,-5.28 -1.22,-11.61 -1.22,-14.07 0.01,-7.46 3.44,-13.98 7.35,-13.98 2.81,0 3.2,2.41 1.23,7.57 -1.62,4.24 -1.66,5.74 -0.49,17.95 1.37,14.26 0.88,18 -3.07,23.63 -2.42,3.46 -2.35,3.85 0.69,3.85 6.07,0 9.26,-7.78 8.06,-19.65 -0.33,-3.22 -0.87,-10.7 -1.21,-16.63 -0.59,-10.2 -0.49,-10.96 1.74,-14.27 2.35,-3.48 5.78,-5.24 7.81,-3.99 1.62,1.01 1.26,3.44 -0.98,6.59 -2.47,3.46 -2.91,12.85 -0.98,20.89 1.6,6.68 0.87,21.5 -1.25,25.59 -0.85,1.63 -2.72,4.06 -4.14,5.39 -4.26,3.98 -3.66,8.1 4.92,33.58 7.38,21.93 9.94,36.63 10.98,63 1.09,27.56 5.13,66.96 8.62,84 0.56,2.75 4.79,12.65 9.38,22 11.25,22.87 14.33,29.82 16.61,37.5 1.06,3.57 2.45,8.2 3.09,10.29 0.95,3.13 0.89,4.05 -0.35,5.28 -3.29,3.3 -5.44,0.12 -9.85,-14.57 -2.45,-8.14 -10.47,-25 -11.9,-25 -2.89,0 -5.19,34.96 -3.16,48.06 2.95,19.03 7.64,33.86 15.59,49.25 1.29,2.5 1.27,3.18 -0.17,5.96 -1.32,2.56 -1.5,4.9 -0.96,12.68 0.36,5.25 1.12,12.43 1.68,16.03 1.97,12.5 2.59,13.8 5.72,12.1 3.34,-1.8 4.91,-0.4 5.62,5 0.97,7.3 0.72,32.8 -0.45,45.4 -1.77,19.1 -2.17,35.3 -1.02,40.7 0.61,2.9 2.99,8 5.41,11.7 6.95,10.7 8.73,17 8.95,31.9 0.11,7 -0.2,16.3 -0.69,20.8 -0.77,7.1 -0.64,8.6 1.19,12.7 1.65,3.7 2.87,5 6.07,6.3 4.41,1.8 5.87,3.6 8.53,10.7 0.98,2.6 2.77,5.4 3.97,6.2 2.88,1.9 13.75,2.5 14.35,0.8 0.3,-0.9 -0.79,-1.3 -3.52,-1.3 -5.71,0 -6.68,-1.6 -4.64,-7.9 1,-3.1 1.42,-6.4 1.05,-8.2 -0.6,-3 0.61,-5.9 2.49,-5.9 0.48,0 1.51,1.6 2.3,3.5 0.8,1.9 2.77,4.1 4.43,4.9 3.59,1.9 7.16,6.2 7.16,8.7 0,2.3 1.86,3.5 3.29,2 1.55,-1.5 -1.87,-8.2 -7.69,-14.9 -4.51,-5.2 -5.66,-8.4 -3.52,-9.7 0.59,-0.4 2.08,0.3 3.31,1.4 3.05,2.9 3.57,2.7 2.98,-1.1 -0.55,-3.6 1.58,-7.6 3.4,-6.4 0.59,0.3 1.39,2.1 1.78,3.8 0.66,3.1 8.08,12.8 9.7,12.8 0.41,0 0.75,-1.2 0.75,-2.6 0,-1.7 -1.44,-4.2 -4,-7 -4.28,-4.6 -4.96,-7.3 -2.39,-9.5 1.7,-1.4 1.97,-1.2 5.02,3.8 2.16,3.5 2.59,0.4 0.55,-3.9 -1.14,-2.3 -2.38,-5.6 -2.76,-7.3 -0.38,-1.6 -1.87,-4.8 -3.31,-7 -2.62,-4 -4.32,-7.6 -10.17,-21.5 -4.85,-11.5 -10.75,-22.5 -13.46,-25 -1.34,-1.3 -4.13,-2.6 -6.2,-2.9 -5.11,-0.8 -5.5,-3.4 -0.92,-6.1 4.5,-2.7 4.87,-4.5 5.04,-24.5 0.12,-13.8 0.53,-17.6 2.93,-27.5 5.66,-23.3 9.17,-42.7 12.19,-66.98 0.92,-7.43 2.06,-15.32 2.53,-17.54 2.15,-10.03 3.29,-31.35 2.13,-39.68 -0.63,-4.55 -1.82,-15.07 -2.64,-23.37 -2.28,-23.12 -7.48,-43.42 -12.26,-47.85 -2.5,-2.32 -2.51,-2.4 -1.39,-10.7 0.61,-4.6 1.57,-13.93 2.12,-20.73 0.56,-6.8 1.24,-12.72 1.51,-13.16 0.27,-0.44 0.02,-2.05 -0.56,-3.58 l -1.05,-2.77 -1.94,3.19 c -2.06,3.39 -2.66,3.67 -4.87,2.27 -1.08,-0.68 -1.25,-2.32 -0.76,-7.08 0.5,-4.78 2.02,-8.93 6.67,-18.17 5.89,-11.73 7.09,-15.54 11.94,-37.83 2.57,-11.82 4.32,-25.58 3.56,-27.97 -0.51,-1.61 -1.48,-1.75 -8.86,-1.29 -6.66,0.41 -9.07,0.16 -12.22,-1.28 -9.01,-4.13 -9.44,-7.06 -2.92,-20.01 6.55,-13.01 10.03,-22.71 11.94,-33.3 2.47,-13.66 1.56,-14.77 -6.33,-7.76 -4.99,4.44 -14.06,8.61 -18.71,8.61 -5.65,0 -11.48,-4.98 -11.62,-9.93 -0.14,-4.65 1.75,-7.34 8.05,-11.47 6.97,-4.58 11.86,-11.55 16.26,-23.22 2.56,-6.78 4.48,-9.97 8.78,-14.62 l 5.51,-5.95 -1.25,-10.65 c -0.69,-5.87 -1.7,-17.64 -2.25,-26.16 -1.89,-29.49 -4.85,-41.75 -10.91,-45.21 -3.66,-2.09 -3.75,-4.2 -0.37,-9.17 1.44,-2.11 2.84,-5.56 3.12,-7.66 0.97,-7.19 -2.08,-30.69 -6.27,-48.46 -2.23,-9.44 -1.51,-17.24 2.99,-32.44 2.02,-6.84 4.04,-13.14 4.48,-14 0.69,-1.34 2.45,-27.64 2.36,-35.06 -0.08,-6.02 -2.47,-25.58 -3.22,-26.33 -0.45,-0.45 -3.46,0.5 -6.69,2.13 -3.23,1.62 -9.03,3.49 -12.88,4.15 -8.62,1.47 -54.09,0.93 -60,-0.72 -16.61,-4.65 -19.2,-5.63 -22.05,-8.33 -1.67,-1.6 -3.65,-2.9 -4.4,-2.9 -0.74,0 -2.97,1.75 -4.95,3.89 -6.21,6.72 -20.04,9.1 -52.96,9.11 -26.16,0 -33.68,-1 -42.195,-5.63 -3.053,-1.66 -5.355,-2.36 -5.918,-1.8 -0.811,0.82 -3.192,19.72 -3.329,26.43 -0.028,1.37 0.297,9.25 0.722,17.5 0.592,11.51 1.315,16.63 3.104,22 3.836,11.51 7.48,26.64 7.457,30.95 -0.011,2.23 -0.673,6.97 -1.471,10.55 -3.701,16.58 -5.653,30.34 -5.824,41.06 -0.177,11.13 -0.08,11.72 2.566,15.56 3.516,5.09 3.466,7.06 -0.231,9.17 -6.001,3.43 -8.929,15.42 -10.917,44.71 -0.56,8.25 -1.569,20.2 -2.243,26.56 l -1.224,11.56 4.662,4.3 c 4.54,4.18 7.675,9.61 11.172,19.35 2.857,7.96 8.859,15.87 14.889,19.61 6.01,3.73 7.72,6.11 7.86,10.92 0.1,3.78 -2.37,6.9 -7.02,8.87 -5.88,2.49 -15.536,-0.61 -23.557,-7.55 -7.595,-6.57 -8.279,-5.75 -6.163,7.4 1.648,10.24 5.8,22.2 11.102,31.98 7.147,13.18 6.869,17.85 -1.276,21.52 -4.061,1.83 -6.075,2.09 -13.022,1.68 -7.291,-0.42 -8.283,-0.27 -8.792,1.33 -0.711,2.24 0.941,15.96 3.125,25.97 5.931,27.16 7.306,31.11 17.511,50.3 0.528,0.99 1.234,4.74 1.569,8.33 l 0.609,6.53 -2.879,-0.33 c -1.857,-0.22 -3.311,-1.2 -4.097,-2.79 l -1.219,-2.46 -1.062,2.79 c -0.584,1.54 -0.865,3.11 -0.625,3.5 0.239,0.39 0.919,6.31 1.511,13.17 0.591,6.85 1.577,16.22 2.19,20.82 1.107,8.3 1.097,8.38 -1.405,10.7 -5.639,5.23 -10.868,27.89 -13.831,59.94 -2.411,26.07 -2.414,26 3.095,66 4.533,32.88 7.437,48.88 12.788,70.48 2.226,9 2.633,13 2.809,27.6 0.113,9.5 0.499,18.1 0.857,19.2 0.359,1.1 2.24,3 4.18,4.2 4.616,2.7 4.278,5.4 -0.728,5.8 -6.573,0.6 -11.866,8.6 -22.476,34.2 -2.623,6.3 -5.756,12.9 -6.964,14.5 -1.208,1.7 -2.987,5.5 -3.953,8.5 -0.966,3 -2.461,6.7 -3.323,8.2 -1.741,3.1 -0.6,5.4 1.195,2.5 3.088,-5 3.315,-5.2 5.089,-3.7 2.336,1.9 1.203,5.7 -3.023,10.1 -3.214,3.3 -4.823,8.9 -2.555,8.9 1.713,0 10.122,-11.2 10.122,-13.5 0,-1.3 0.518,-2.7 1.152,-3.1 1.891,-1.1 4.044,2.8 3.482,6.4 -0.583,3.7 0.281,4.1 2.866,1.2 0.996,-1.1 2.415,-2 3.155,-2 2.72,0 1.217,4.4 -3.566,10.4 -6.169,7.8 -8.895,13.2 -7.366,14.7 1.563,1.6 3.015,0.4 3.787,-3.1 0.455,-2.1 2.334,-4.3 5.98,-7.1 2.931,-2.2 5.593,-5.1 5.933,-6.4 1.209,-4.8 4.835,-1.3 3.868,3.8 -0.288,1.5 0.226,5 1.142,7.8 2.036,6.2 1.063,7.9 -4.555,7.9 -3.718,0 -4.735,0.8 -3.128,2.5 1.242,1.2 11.581,-0.4 14.09,-2.3 z M 118.86,884.38 c -1.55,-1.16 -1.72,-1.81 -0.84,-3.25 0.61,-1 2.19,-1.97 3.5,-2.15 4.57,-0.65 5.63,-2.67 6.09,-11.59 0.41,-7.74 0.76,-8.87 4.88,-15.68 3.93,-6.5 4.43,-8.03 4.45,-13.36 0.02,-4.96 0.34,-6.07 1.8,-6.36 3.73,-0.71 4.95,1.79 4.43,9.06 -0.4,5.67 -1.13,7.84 -4.34,13.03 -3.53,5.71 -3.9,7 -4.4,15.24 -0.3,4.95 -1.11,9.99 -1.79,11.2 -2.8,4.98 -9.67,6.9 -13.78,3.86 z m 138.79,-0.11 c -3.63,-2.55 -4.66,-5.48 -5.23,-14.95 -0.51,-8.27 -0.87,-9.52 -4.48,-15.36 -3.27,-5.28 -4.01,-7.46 -4.35,-12.79 -0.32,-5.12 -0.05,-6.83 1.34,-8.36 1.26,-1.4 2.21,-1.68 3.46,-1.01 1.31,0.7 1.72,2.32 1.77,7.02 0.05,5.27 0.54,6.84 3.57,11.41 4.28,6.43 5.68,11.17 5.69,19.18 0,6.83 1.72,9.41 6.26,9.41 3.41,0 4.84,3.72 2.17,5.67 -2.44,1.79 -7.48,1.68 -10.2,-0.22 z m 26.85,0.14 c -1.84,-2.22 0.53,-13.88 3.47,-17.05 2.61,-2.81 6.2,-3.35 7.08,-1.07 0.31,0.81 -0.36,2.97 -1.49,4.8 -1.13,1.82 -2.36,5.24 -2.73,7.59 -0.98,6.09 -3.86,8.7 -6.33,5.73 z M 97.68,883.57 c -0.542,-0.69 -1.287,-3.23 -1.656,-5.64 -0.368,-2.41 -1.555,-5.51 -2.636,-6.88 -2.493,-3.17 -2.495,-4.93 -0.005,-5.72 2.517,-0.8 5.299,0.7 6.786,3.66 1.47,2.92 3.41,13.76 2.68,14.94 -0.8,1.31 -4.033,1.08 -5.169,-0.36 z m 190.11,-36.32 c -1.49,-2.27 -1.55,-3.36 -0.47,-9.25 0.66,-3.68 1.71,-8.4 2.33,-10.49 1.32,-4.47 4.3,-6.6 6.34,-4.54 1.12,1.12 1.02,2.75 -0.59,9.85 -1.06,4.67 -1.94,9.87 -1.95,11.55 -0.03,2.9 -1.52,5.45 -3.2,5.45 -0.43,0 -1.54,-1.16 -2.46,-2.57 z M 92.94,840.07 c -3.223,-16.18 -3.108,-19.19 0.682,-17.73 2.147,0.82 3.34,3.85 5.296,13.44 1.855,9.12 1.155,13.04 -2.342,13.04 -1.58,0 -2.181,-1.45 -3.636,-8.75 z M 222.62,602.62 c -0.66,-0.66 -1.2,-1.72 -1.2,-2.35 0,-1.64 3.37,-4.45 5.33,-4.45 0.92,0 1.67,-0.69 1.67,-1.53 0,-0.83 1.74,-3.42 3.87,-5.75 9.32,-10.19 17.88,-25.33 23.61,-41.79 5.62,-16.14 13.09,-27.9 16.94,-26.63 2.27,0.74 1.7,5.01 -1.22,9.06 -3.12,4.36 -6.49,11.86 -10.16,22.64 -6.37,18.69 -23.84,45 -29.89,45 -1.22,0 -2.49,0.78 -2.83,1.75 -0.72,2.04 -3.34,5.25 -4.27,5.25 -0.36,0 -1.19,-0.54 -1.85,-1.2 z m -63,-1 c -0.66,-0.66 -1.2,-2.01 -1.2,-3 0,-1.24 -0.75,-1.8 -2.42,-1.8 -3.55,0 -7.59,-3.88 -14.34,-13.75 -7.39,-10.81 -12.38,-20.75 -16.93,-33.74 -3.91,-11.16 -5.31,-14.14 -9.45,-20.19 -3.57,-5.23 -3.77,-8.32 -0.53,-8.32 4.55,0 10.74,9.88 16.05,25.62 5.31,15.76 13.67,30.73 23.02,41.26 2.53,2.85 4.6,5.84 4.6,6.65 0,0.81 0.83,1.47 1.85,1.47 2.44,0 5.55,3.52 4.8,5.46 -0.7,1.83 -3.76,2.02 -5.45,0.34 z m 19.41,-99.96 c -1.67,-2.38 -0.6,-5.84 1.8,-5.84 0.74,0 1.91,-0.68 2.59,-1.5 1.5,-1.8 5.14,-1.97 6.8,-0.3 1.99,1.99 1.43,6.53 -1.02,8.24 -3.28,2.3 -8.35,2 -10.17,-0.6 z m -45.25,-46.35 c -0.37,-0.95 1.36,-3.41 4.78,-6.78 3.08,-3.03 6.72,-8.03 8.55,-11.75 3.7,-7.51 8.77,-19.36 9.82,-22.96 1.66,-5.71 11.27,-23.6 14.86,-27.68 4.09,-4.65 8.28,-7.32 11.48,-7.32 4.12,0 3.03,2.94 -3.65,9.8 -4.99,5.12 -7.88,9.29 -11.31,16.29 -2.54,5.17 -4.96,10.53 -5.37,11.91 -3.73,12.4 -16.02,35.13 -20.81,38.49 -2.78,1.94 -7.6,1.95 -8.35,0 z m 110.86,-0.05 c -5.15,-3.61 -14.24,-20.27 -20.17,-36.94 -4.27,-12.04 -10.51,-22.78 -17.25,-29.7 -3.93,-4.04 -6.48,-7.46 -6.17,-8.27 0.84,-2.2 3.28,-2.63 6.19,-1.11 7.18,3.78 15.34,16.17 22.37,33.97 7.62,19.33 13.55,30.47 19,35.69 3.29,3.16 4.85,5.38 4.46,6.38 -0.76,2 -5.56,1.98 -8.43,-0.02 z M 63.39,1196.9 c 1.305,-2.5 1.319,-3.4 0.041,-2.6 -1.606,1 -3.225,4.5 -2.076,4.5 0.55,0 1.466,-0.9 2.035,-1.9 z m 262.06,0 c -1.07,-2 -3.03,-3.7 -3.03,-2.6 0,1.4 2.13,4.5 3.07,4.5 0.66,0 0.64,-0.7 -0.04,-1.9 z m -203.16,-44.1 c 2,-1.7 4.69,-4 5.99,-5.1 2.1,-1.7 2.29,-2.5 1.68,-6.7 -1.2,-8.2 -2.73,-13.2 -4.09,-13.2 -3.42,0 -9.45,14.6 -9.45,22.9 0,6 0.83,6.3 5.87,2.1 z m 148.13,-2.4 c 0,-6 -4.53,-18.6 -7.92,-22 -1.99,-1.9 -1.99,-1.9 -2.97,0.6 -1.63,4.3 -3.25,14.8 -2.61,16.8 0.33,1.1 2.07,2.8 3.87,3.9 1.79,1.1 4.09,3 5.1,4.1 3.22,3.5 4.53,2.6 4.53,-3.4 z m -183,-440.58 c 0,-1.1 -1.533,-5.26 -3.407,-9.25 -7.175,-15.28 -10.51,-25.57 -12.069,-37.25 -1.105,-8.28 -1.579,-9.34 -5.122,-11.43 -4.151,-2.45 -4.48,-5.71 -0.915,-9.06 2.287,-2.15 2.807,-2.24 6.468,-1.14 2.372,0.71 7.53,4.22 12.763,8.69 4.83,4.13 9.333,7.95 10.007,8.49 0.673,0.54 3.166,1.24 5.543,1.57 3.22,0.44 4.64,0.2 5.6,-0.97 1.84,-2.21 0.51,-5.41 -3,-7.22 -8.18,-4.23 -13.147,-11.15 -19.326,-26.93 -2.87,-7.33 -6.715,-12.19 -12.462,-15.76 -1.881,-1.16 -5.861,-4.39 -8.843,-7.16 -4.837,-4.51 -5.367,-5.39 -4.907,-8.23 0.284,-1.75 -0.092,-17.71 -0.835,-35.48 -0.743,-17.76 -1.174,-32.58 -0.957,-32.93 0.217,-0.36 1.31,-6.53 2.428,-13.73 2.324,-14.94 2.97,-51.52 0.933,-52.78 -2.394,-1.47 -5.037,3.18 -5.955,10.48 -1.045,8.33 -1.378,9.09 -3.984,9.09 -2.559,0 -3.388,-3.63 -2.585,-11.31 0.776,-7.43 4.787,-14.56 12.094,-21.49 4.224,-4.01 5.471,-6.09 7.772,-12.94 1.507,-4.48 3.444,-12.23 4.304,-17.22 0.94,-5.44 2.784,-11.52 4.618,-15.21 2.98,-6.01 3.038,-6.4 2.408,-16.25 -0.446,-6.95 -0.049,-16.18 1.278,-29.72 2.017,-20.58 1.888,-23.11 -1.696,-33.14 -1.135,-3.18 -3.243,-10.58 -4.684,-16.44 -3.075,-12.52 -2.791,-17.28 1.031,-17.28 2.017,0 2.501,0.61 2.973,3.75 3.027,20.13 12.679,46.07 18.984,51.03 5.231,4.12 14.301,5.32 41.831,5.52 14.14,0.11 25.83,-0.06 25.96,-0.37 0.14,-0.3 4.04,-1.29 8.66,-2.2 7.99,-1.55 8.66,-1.89 13.23,-6.68 4.57,-4.79 7.99,-6.27 9.36,-4.05 0.34,0.55 1.52,1 2.61,1 1.09,0 3.01,1.1 4.27,2.46 2.74,2.96 4.83,3.8 17.61,7.03 9.1,2.31 11.66,2.51 32.5,2.51 24.43,0 34.05,-1.28 39.01,-5.18 5.55,-4.36 14.99,-28.15 17.97,-45.27 1.54,-8.87 2.59,-10.85 5.2,-9.85 3.63,1.39 2.02,13.84 -4.18,32.44 -4.01,12.01 -4.13,14.43 -1.88,37.73 1.01,10.51 1.38,20.31 0.99,26.63 -0.59,9.69 -0.52,10.2 2.46,16.47 1.68,3.55 3.71,10.15 4.49,14.65 0.79,4.5 2.63,11.93 4.1,16.53 2.31,7.23 3.49,9.23 8.84,14.94 8.08,8.62 11.51,15.48 11.51,23.02 0,6.97 -0.65,8.89 -3.05,8.89 -2.51,0 -2.85,-0.81 -3.89,-9.09 -0.65,-5.15 -1.51,-7.81 -3.02,-9.31 -1.82,-1.82 -2.24,-1.9 -3.13,-0.6 -1.65,2.4 -0.37,43.64 1.7,55 2.08,11.42 2.12,13.62 0.92,45.5 -0.52,13.75 -0.97,27.77 -0.99,31.16 -0.04,7.21 -0.91,8.41 -12.22,16.93 -9.13,6.89 -10.33,8.47 -14.73,19.45 -5.55,13.87 -6.5,15.12 -19.47,25.8 -3.06,2.52 -3.27,3.01 -2.15,5.09 1.09,2.05 1.74,2.24 5.66,1.7 2.43,-0.33 4.97,-1.04 5.65,-1.58 0.67,-0.54 4.52,-3.81 8.55,-7.26 12.77,-10.96 17.25,-12.78 21.13,-8.6 3.12,3.34 2.63,6.53 -1.38,8.89 -3.14,1.85 -3.51,2.6 -4.6,9.22 -2.65,16.09 -8.46,33.85 -14.15,43.2 -2.21,3.63 -2.4,7.5 -0.37,7.5 1.97,0 4.83,-3.15 10.46,-11.5 5.19,-7.7 8.05,-14.22 11.1,-25.3 3.03,-10.97 8.79,-18.48 10.58,-13.8 0.3,0.77 -0.35,3.15 -1.44,5.28 -1.08,2.13 -2.73,6.56 -3.66,9.85 -2.65,9.41 -6.4,18.4 -10.75,25.75 -2.21,3.73 -3.77,7.03 -3.47,7.33 0.69,0.69 8.17,-6.03 10.77,-9.68 1.08,-1.52 3.06,-6.96 4.4,-12.1 4.23,-16.23 7.81,-22.4 11.62,-20.02 1.05,0.65 2.78,1.19 3.86,1.19 3.26,0 3.3,1.65 0.2,8.73 -2.91,6.66 -4.92,14.27 -3.76,14.27 0.33,0 1.54,-1.86 2.7,-4.13 1.15,-2.27 3.35,-5.84 4.87,-7.95 1.53,-2.1 3.26,-5.76 3.85,-8.13 3.03,-12.15 4.54,-37.73 3.18,-53.94 -0.38,-4.6 -0.11,-6.03 1.46,-7.78 1.17,-1.28 2.41,-5 3.13,-9.35 4,-24.12 5.03,-29.57 8.02,-42.22 1.81,-7.7 3.8,-16.93 4.42,-20.5 0.62,-3.58 1.54,-8.3 2.06,-10.5 5.35,-22.66 7.53,-41.28 6.62,-56.5 -0.62,-10.43 -1.81,-16.54 -7.26,-37.5 l -3.64,-14 -0.28,-26.5 c -0.29,-26.6 -2.32,-50.94 -4.63,-55.24 -1.09,-2.06 -1.17,-2.06 -2.5,-0.25 -0.75,1.03 -1.37,3.3 -1.37,5.06 0,4.07 -2.31,6.24 -4.62,4.33 -1.9,-1.58 -1.52,-10.2 1.05,-23.4 2.38,-12.28 3.07,-28.89 1.58,-38.45 -2.94,-18.88 -22.07,-44.3 -40.63,-53.97 -3.73,-1.95 -4.71,-2.01 -16.86,-1.08 -10.99,0.83 -13.24,0.76 -15.21,-0.53 -2.91,-1.92 -2.93,-3.8 -0.06,-5.76 l 2.25,-1.53 -5,-5.16 c -2.75,-2.84 -9.36,-7.89 -14.69,-11.22 -5.33,-3.33 -12.26,-8.23 -15.41,-10.89 -3.14,-2.66 -6.1,-4.6 -6.56,-4.31 -0.46,0.28 -0.55,2.96 -0.2,5.94 0.53,4.56 0.36,5.52 -1.08,6.07 -4.35,1.67 -6.56,-6.58 -6.56,-24.5 0,-7.53 -0.42,-13.25 -0.99,-13.61 -0.9,-0.55 -6.75,4.5 -21.58,18.62 -2.79,2.66 -6.61,5.46 -8.5,6.23 -5.21,2.13 -18.98,2.98 -25.69,1.6 -5.19,-1.08 -6.37,-1.85 -12.4,-8.13 -4.02,-4.19 -6.92,-6.49 -7.33,-5.83 -0.38,0.61 -0.42,6.71 -0.11,13.56 0.47,10.08 0.28,13.22 -1.02,16.45 -0.88,2.2 -1.94,4 -2.37,4 -0.43,0 -1.02,0.93 -1.32,2.08 -0.39,1.49 -1.19,1.98 -2.86,1.75 -2,-0.29 -2.29,-0.83 -2.04,-3.82 0.16,-1.92 0.72,-3.92 1.25,-4.45 1.22,-1.22 1.26,-5.56 0.05,-5.56 -0.5,0 -4.66,1.61 -9.25,3.58 -4.59,1.98 -13.54,5.31 -19.9,7.42 -6.36,2.11 -12.92,4.65 -14.59,5.66 -7.85,4.76 -11.371,7.49 -10.816,8.39 0.336,0.54 1.026,0.72 1.536,0.4 0.51,-0.31 0.93,0.09 0.93,0.89 0,2.78 -5.16,3.49 -18.411,2.51 -12.239,-0.9 -12.851,-0.85 -16.4,1.29 -19.111,11.57 -36.103,33.61 -39.866,51.73 -1.895,9.12 -1.29,28.96 1.27,41.63 0.889,4.4 1.846,11.29 2.126,15.32 l 0.51,7.33 -2.864,-0.33 c -2.544,-0.29 -2.926,-0.8 -3.433,-4.59 -0.7,-5.25 -2.324,-7.25 -3.72,-4.59 -2.754,5.25 -4.442,25.42 -4.717,56.36 l -0.226,25.5 -3.755,14 c -3.6594,13.64 -4.3116,16.57 -6.462,29 -2.5817,14.92 -0.4739,38.2 5.884,65 0.522,2.2 1.453,6.92 2.07,10.5 0.616,3.57 2.603,12.8 4.414,20.5 3.108,13.2 5.624,26.7 7.741,41.5 0.543,3.8 1.818,7.73 3.069,9.45 2.318,3.21 2.355,3.8 1.235,19.82 -0.56,8.02 -0.313,14.28 0.966,24.5 2.175,17.38 3.197,21.41 6.631,26.15 1.525,2.11 3.781,5.8 5.014,8.2 1.233,2.41 2.424,3.84 2.646,3.19 0.536,-1.57 -3.512,-15.07 -4.75,-15.83 -0.534,-0.33 -0.97,-1.92 -0.97,-3.54 0,-2.4 0.421,-2.94 2.3,-2.94 1.265,0 2.81,-0.51 3.433,-1.14 0.623,-0.62 1.864,-0.85 2.759,-0.5 2.051,0.78 7.175,11.97 8.649,18.89 1.709,8.01 5.166,14.87 9.468,18.79 7.822,7.13 8.185,6.36 1.926,-4.09 -2.456,-4.1 -5.883,-11.95 -7.615,-17.45 -1.733,-5.5 -4.269,-12.64 -5.636,-15.85 -1.539,-3.62 -2.13,-6.21 -1.552,-6.79 2.71,-2.7 7.607,4.23 10.233,14.5 3.422,13.38 9.938,25.83 17.994,34.39 2.624,2.78 5.041,2.9 5.041,0.25 z m 20.608,-367.93 c -3.3,-0.65 -6.99,-4.95 -6.12,-7.12 0.33,-0.8 2.33,-2.26 4.46,-3.24 4.39,-2.03 7.98,-1.56 10.66,1.41 3.87,4.27 -2.2,10.31 -9,8.95 z m 164.68,-0.57 c -4.65,-1.99 -5.49,-6.08 -1.88,-9.17 3.23,-2.79 5.32,-2.91 9.76,-0.58 5.48,2.88 5.86,4.01 2.58,7.59 -2.89,3.16 -6.42,3.88 -10.46,2.16 z m -71.09,-33.7 c -1.83,-1.83 -1.46,-3.58 1.55,-7.36 2.94,-3.68 5.66,-4.44 6.65,-1.86 1.16,3.04 0.58,5.53 -1.85,7.96 -2.71,2.71 -4.53,3.07 -6.35,1.26 z m 0.82,-20.28 c -0.91,-1.1 -0.96,-2.26 -0.17,-4.53 0.59,-1.68 0.85,-3.61 0.59,-4.3 -0.27,-0.69 0.18,-2.14 0.98,-3.22 3.2,-4.31 7.57,2.95 5.52,9.19 -1.4,4.27 -4.64,5.61 -6.92,2.86 z M 91.088,252.15 c -1.631,-1.63 -0.349,-4.01 3.28,-6.08 3.334,-1.9 3.979,-2.81 4.242,-6 0.241,-2.91 0.777,-3.82 2.379,-4.05 2.17,-0.31 4.43,3.12 4.43,6.71 0,5.2 -11.194,12.56 -14.331,9.42 z m 194.37,-3.18 c -2.94,-2.8 -4.04,-4.64 -4.04,-6.81 0,-6.6 6.2,-8.95 6.82,-2.58 0.2,2.11 1.19,3.85 2.84,4.99 7.12,4.91 7.84,8.25 1.78,8.25 -2.52,0 -4.36,-0.96 -7.4,-3.85 z m -91.98,-12.1 c -2.27,-2.26 -2.76,-6.65 -0.83,-7.3 0.68,-0.22 2.47,0.06 3.98,0.63 2.38,0.9 3.12,0.68 5.57,-1.67 5.96,-5.71 8.72,-2.18 3.92,5 -2.73,4.09 -3.73,4.83 -6.89,5.09 -2.68,0.23 -4.26,-0.25 -5.75,-1.75 z m -78.06,-2.98 c -5.1,-1.02 -8.17,-2.95 -7.78,-4.89 0.29,-1.49 1.69,-1.64 11.84,-1.33 7.34,0.22 14.58,-0.19 19.98,-1.15 25.53,-4.53 29.25,-4.66 29.77,-1.04 0.38,2.67 0.19,2.74 -16.78,5.35 -7.41,1.14 -15.29,2.5 -17.5,3.01 -4.59,1.06 -14.35,1.08 -19.53,0.05 z m 133,-0.49 c -3.02,-0.73 -10.74,-2.12 -17.14,-3.08 -12.96,-1.95 -14.22,-2.42 -13.69,-5.12 0.58,-2.97 10.07,-2.51 33.83,1.64 4.07,0.71 10.53,0.87 17.25,0.45 10.45,-0.67 10.75,-0.63 10.75,1.39 0,1.33 -1.14,2.68 -3.15,3.71 -4.23,2.19 -20.52,2.78 -27.85,1.01 z m -52,-12.9 c -6.87,-3.26 -11.5,-8.22 -10.38,-11.13 0.97,-2.52 4.55,-1.78 8.11,1.67 4.32,4.18 5.01,3.73 13.34,-8.66 6.7,-9.98 8.94,-12.16 11.49,-11.18 2.65,1.02 1.35,4.03 -7.38,17.12 -9.04,13.54 -10.26,14.52 -15.18,12.18 z m -134,489.39 c 0,-1.29 -4.979,-7.07 -6.089,-7.07 -1.589,0 -0.992,1.75 1.678,4.92 2.559,3.04 4.411,3.95 4.411,2.15 z m 266.41,-2.15 c 2.67,-3.17 3.27,-4.92 1.68,-4.92 -1.11,0 -6.09,5.78 -6.09,7.07 0,1.8 1.85,0.89 4.41,-2.15 z M 69.808,594.25 c 0.906,-2.37 3.654,-25.55 3.129,-26.4 -0.454,-0.74 0.573,-12.01 2.529,-27.76 0.562,-4.52 2.55,-12.44 4.418,-17.61 3.21,-8.86 3.32,-9.59 2.01,-13.27 -0.763,-2.14 -1.404,-5.69 -1.425,-7.89 -0.054,-5.57 3.459,-31.46 5.496,-40.5 3.143,-13.97 3.04,-19.44 -0.614,-32.65 -1.805,-6.52 -3.709,-12.42 -4.23,-13.1 -1.5,-1.98 -2.614,-1.47 -3.285,1.5 -1.957,8.66 -6.805,24.3 -8.599,27.75 -1.93,3.7 -2.106,5.93 -2.394,30.5 -0.236,20.05 -0.789,29.59 -2.27,39.19 -1.693,10.98 -1.895,16.31 -1.495,39.5 0.439,25.43 1.138,33.25 3.538,39.56 1.176,3.09 2.298,3.5 3.192,1.18 z m 250.42,-1.18 c 2.39,-6.3 3.1,-14.11 3.55,-39.25 0.42,-23.03 0.22,-28.27 -1.52,-40 -1.52,-10.22 -2.07,-19.82 -2.29,-39.5 -0.26,-24.1 -0.43,-26.3 -2.36,-30 -1.8,-3.45 -6.65,-19.09 -8.6,-27.75 -0.68,-2.97 -1.79,-3.48 -3.29,-1.5 -0.52,0.68 -2.42,6.58 -4.23,13.1 -3.65,13.21 -3.76,18.68 -0.61,32.65 2.03,9.04 5.55,34.93 5.49,40.5 -0.02,2.2 -0.66,5.75 -1.42,7.89 -1.31,3.67 -1.2,4.41 1.89,13 1.81,5.01 3.57,10.68 3.92,12.61 1.17,6.48 3.63,32.24 3.16,33 -0.54,0.87 2.19,24.03 3.11,26.43 0.9,2.32 2.02,1.91 3.2,-1.18 z M 201.248,183.65 c 5.91,-1.12 11.99,-5.8 27.63,-21.26 6.52,-6.45 8.69,-9.35 10.39,-13.9 3.48,-9.29 2.73,-12.8 -2.24,-10.54 -1.97,0.9 -2.89,0.88 -4.05,-0.08 -1.32,-1.1 -1.27,-1.68 0.47,-4.9 1.08,-2.01 3.3,-5.23 4.93,-7.15 3.33,-3.95 6.04,-12.97 6.04,-20.14 0,-5.75 -2.35,-8.872 -11.72,-15.558 -7.07,-5.043 -9.21,-8.613 -11.78,-19.648 -1.65,-7.081 -1.98,-7.47 -4.79,-5.667 -9.79,6.279 -16.51,6.472 -30.46,0.873 l -3.26,-1.305 -7.74,7.571 c -8.6,8.406 -12.11,11.011 -17.16,12.721 -1.87,0.636 -4.03,2.055 -4.8,3.153 -0.77,1.098 -2.5,1.997 -3.84,1.997 -2.04,0 -2.45,-0.489 -2.45,-2.928 0,-1.611 -0.77,-3.698 -1.71,-4.637 -1.61,-1.611 -1.75,-1.544 -2.5,1.178 -1.43,5.21 1.15,12.518 3.68,10.417 4.05,-3.368 8.52,11.333 5.16,17.013 -2.21,3.75 -2.06,5.99 0.89,13 1.38,3.28 2.77,8.78 3.09,12.22 0.59,6.48 2.63,14.05 5,18.6 0.76,1.45 1.38,3.64 1.39,4.86 0,1.31 1.25,3.14 3.07,4.48 1.68,1.25 3.77,3.77 4.64,5.59 2.99,6.3 9.37,12.21 15.29,14.17 5.47,1.81 6.66,1.8 16.83,-0.13 z m -14.83,-13.09 c -3.22,-1.68 -3.4,-5.27 -0.25,-5.17 1.24,0.04 4.95,0.15 8.25,0.25 6.07,0.18 7.7,1.54 4.75,3.96 -2.17,1.79 -10.03,2.39 -12.75,0.96 z m -14.84,-10.34 c -2.27,-1.6 -2.82,-3.87 -1.19,-4.89 2.59,-1.6 16.25,-4.04 22.03,-3.93 9.07,0.16 16.77,1.43 18.05,2.98 1.61,1.94 -0.47,5.15 -3.79,5.87 -1.52,0.32 -9.55,0.79 -17.85,1.03 -12.37,0.37 -15.48,0.17 -17.25,-1.06 z m 4.67,-15.52 c -3.52,-1.31 -4.92,-5.4 -3.24,-9.45 2.87,-6.94 6.91,-6.92 5.87,0.03 l -0.65,4.28 6.63,0.71 c 5.83,0.63 10.5,0.1 18.33,-2.05 0.89,-0.25 1.08,-1.53 0.62,-4.38 -0.59,-3.66 -0.45,-4.02 1.54,-4.02 1.55,0 2.6,1.03 3.68,3.6 1.79,4.28 1.1,8.47 -1.66,10.2 -2.54,1.58 -27.44,2.45 -31.12,1.08 z m 8.42,-9.59 c -0.93,-0.34 -1.09,-2.56 -0.61,-8.77 0.61,-7.91 0.53,-8.36 -1.61,-9.51 -1.29,-0.69 -3.6,-0.93 -5.39,-0.57 -4.95,1.01 -5.83,0.93 -11.14,-0.92 -8.55,-2.99 -9.98,-3.92 -10.31,-6.72 -0.29,-2.48 1.77,-4.2 4.46,-3.72 0.47,0.09 5.13,0.09 10.35,0 8.59,-0.13 9.32,-0.29 7.56,-1.61 -1.34,-1.02 -4.47,-1.47 -10.06,-1.47 -8.72,0 -12.32,-1.41 -11.19,-4.358 0.53,-1.374 2.27,-1.645 10.61,-1.645 5.5,0 11.02,0.485 12.29,1.077 1.26,0.593 3.84,3.166 5.74,5.716 4.3,5.79 5.61,13.48 4.04,23.71 -1.09,7.08 -2.46,9.64 -4.74,8.79 z m 23.5,-20 c -4.14,-0.35 -4.75,-0.69 -4.75,-2.66 0,-1.24 1.24,-3.44 2.75,-4.89 3.8,-3.64 9.4,-4.37 17.08,-2.21 5.18,1.45 6.17,2.09 6.17,3.94 0,1.22 -0.79,2.91 -1.75,3.75 -1.91,1.68 -11.73,2.72 -19.5,2.07 z m 15.63,-12.79 c -3.17,-1 -6.13,-1.07 -12.83,-0.29 -9.07,1.06 -11.15,0.53 -9.98,-2.526 0.9,-2.36 6.68,-3.675 16.17,-3.681 7.74,-0.006 8.42,0.171 11.5,2.979 2.73,2.498 3.02,3.148 1.76,3.988 -1.75,1.16 -1.35,1.19 -6.62,-0.47 z m 36.63,10.49 c 1.22,-2.96 0.58,-6.99 -1.12,-6.99 -0.54,0 -1.75,1.4 -2.68,3.11 -0.94,1.71 -2.94,4.97 -4.44,7.25 -1.5,2.27 -2.74,4.95 -2.75,5.95 -0.03,2.52 9.39,-5.46 10.99,-9.32 z m -5.98,-15.558 c 0.53,-1.411 0.97,-5.882 0.97,-9.935 0,-8.821 1.17,-12.5 3.98,-12.5 1.11,0 2.06,0.338 2.12,0.75 0.05,0.413 0.23,3.822 0.41,7.577 0.17,3.756 0.57,7.082 0.88,7.393 1.16,1.161 3.56,-2.036 5.17,-6.906 2.24,-6.729 1.52,-13.583 -1.97,-18.856 -2.39,-3.609 -3.04,-4.018 -5.55,-3.466 -4.07,0.893 -6.04,-2.288 -6.04,-9.739 0,-9.833 -5.24,-21.692 -11.12,-25.167 -2.48,-1.462 -2.86,-1.464 -4.3,-0.023 -0.99,0.995 -1.58,3.332 -1.58,6.317 0,5.442 -1.76,8.514 -4.56,7.944 -1.74,-0.352 -1.91,-1.163 -1.67,-7.79 0.15,-4.068 -0.22,-8.875 -0.82,-10.683 -1.51,-4.588 -9.94,-11.83 -16.72,-14.365 -4.9,-1.8342 -6.44,-1.9864 -11.35,-1.1217 -6.42,1.1312 -13.93,4.6527 -18.38,8.6137 -5.47,4.874 -7.24,5.617 -14.65,6.15 -4.04,0.29 -8.34,1.007 -9.55,1.592 -1.21,0.586 -3.39,3.588 -4.84,6.673 -3.28,6.989 -5.45,9.35 -11.98,13.035 -6.28,3.54 -7.47,6.051 -7.88,16.642 -0.22,5.389 -1.16,10.297 -2.96,15.317 -2.23,6.225 -2.48,7.975 -1.63,11.133 0.55,2.061 1.61,4.25 2.35,4.864 1.1,0.913 1.47,-0.262 1.99,-6.433 0.73,-8.705 1.69,-11.012 4.87,-11.7 1.26,-0.272 3.01,-0.803 3.91,-1.181 1.07,-0.454 2.76,0.362 5,2.408 6.83,6.262 10.27,5.001 23.37,-8.552 10.16,-10.508 14.1,-12.401 22.5,-10.789 4.17,0.799 4.5,1.084 4.42,3.863 -0.15,5.859 4.6,6.028 13.13,0.466 3.41,-2.219 8.08,-6.269 10.38,-9 6.95,-8.237 10.83,-6.202 7.26,3.804 -3.13,8.769 -3.47,12.6 -1.67,18.994 1.97,6.991 2.45,7.611 9.98,13.131 8.1,5.932 11.53,9.17 12.58,11.855 1.15,2.973 2.74,2.853 3.95,-0.315 z"
       style="fill:#000000"
       id="path1349"
       inkscape:connector-curvature="0" />
    <path
       sodipodi:nodetypes="cccccccccccccccccccccccccccccc"
       inkscape:connector-curvature="0"
       id="path23400"
       d="m 84.161079,505.05438 c 6.824325,11.24147 -4.729394,21.6464 -7.502914,32.16305 -0.903021,8.99143 -2.478041,17.99673 -2.311038,27.15537 -0.04889,10.93271 1.446427,22.23948 -2.05323,32.78507 0.247904,14.69804 14.938118,23.72406 20.071775,36.87283 2.76777,10.85328 24.581858,17.06741 17.465718,28.21872 -12.953682,7.69501 -21.701703,-8.11541 -33.012297,-7.84874 -7.670981,11.61638 5.973422,26.62489 7.702756,39.33862 1.020846,13.0042 11.406506,21.85513 24.462141,18.97537 8.90625,-0.34367 17.36325,2.75864 26.31003,1.99925 10.80489,0.0472 21.72459,0.52944 32.44416,-0.8958 9.04565,-6.27402 8.76655,-18.88358 13.15089,-28.16852 2.94164,-7.0407 9.49642,-28.75096 19.22489,-18.35519 5.43481,13.51563 5.81533,28.87733 12.78667,41.82177 4.83805,12.26195 19.83793,6.3744 29.43133,4.89353 12.29689,-1.80143 24.75159,0.34861 37.17395,-0.14192 14.28202,4.0386 18.66199,-8.14977 22.36678,-19.13121 3.60658,-8.84136 7.35436,-17.7257 12.81198,-25.61471 3.45142,-7.49963 -1.00613,-29.09856 -10.78088,-16.38712 -4.89411,9.27422 -29.28862,17.31777 -24.92732,0.0615 8.05456,-7.33867 16.86238,-14.0278 20.43186,-24.93575 3.37073,-12.64782 18.54619,-21.24641 14.70222,-35.19742 -2.99694,-13.6909 -3.65575,-26.8611 -5.90819,-41.84502 3.02203,-13.11565 -5.43878,-25.02414 -6.70489,-37.72489 4.21147,-12.80321 -15.54731,-5.55989 -22.3479,-4.9448 -11.44473,1.0149 -23.20935,-1.13809 -34.48611,2.45247 -25.51393,7.25549 -52.15165,9.22436 -78.57126,7.9407 -21.10253,-0.69389 -42.17439,-4.22068 -62.63828,-9.40931 -5.855067,-2.83839 -5.195546,-1.41607 -10.069709,-2.92493 z"
       style="fill:#dbdbdb;fill-opacity:1;fill-rule:evenodd;stroke:#000000;stroke-width:5;stroke-linecap:round;stroke-linejoin:round;stroke-miterlimit:4;stroke-dasharray:none;stroke-opacity:1" />
  </g>
  <g
     id="g23427"
     transform="translate(555.53561,156.06109)">
    <path
       inkscape:connector-curvature="0"
       id="path23387"
       d="m 656.50388,35.200892 -64.99909,12.228006 -30.46833,44.83602 16.24978,83.558032 18.281,34.64602 -20.31222,10.19 -16.24978,14.26601 -24.37465,6.114 -32.49955,28.53201 -6.09367,52.98803 0,71.33003 -22.34344,48.91202 -2.03122,28.53201 2.03122,112.09005 -2.03122,42.79802 -16.24977,28.53202 18.28099,32.60801 30.46833,32.60802 26.40588,85.59603 16.24978,57.06402 -6.09367,38.72203 14.21855,91.71008 26.40588,101.90004 -8.12488,16.304 -24.37467,30.57 -20.31221,16.304 0,20.38 -2.03122,24.456 16.24977,0 30.46833,-6.114 14.21854,-10.19 16.24978,-38.722 18.281,0 18.28099,-6.114 0,-24.456 -14.21855,-36.684 4.06244,-63.178 6.09366,-99.86212 -6.09366,-32.60801 -8.12488,-20.38001 12.18733,-36.68402 -10.15611,-48.91202 6.09366,-63.17803 0,-65.21603 6.09366,16.30401 30.46833,75.40604 34.53077,112.09005 36.56199,57.06402 -10.15611,38.72202 12.18733,24.456 42.65566,67.254 36.56199,87.634 -6.09367,34.6461 2.03122,4.076 26.40589,8.152 4.06244,8.152 4.06244,10.19 14.21855,20.38 10.15611,4.076 20.31221,12.2281 12.18734,2.0379 8.12488,-6.114 4.06245,-24.456 -2.03122,-24.456 -34.53078,-32.6081 -32.49954,-52.9879 -8.12488,-103.93809 -18.28101,-69.29202 -18.28099,-16.30402 -2.03122,-40.76002 -14.21855,-42.79801 0,-93.74804 -2.03122,-81.52004 -12.18734,-40.76002 22.34345,-63.17803 4.06244,-75.40603 -8.12489,-48.91202 -4.06244,-59.10203 -8.12488,-75.40603 -20.31222,-42.79802 -54.84299,-30.57002 4.06245,-50.95002 -52.81177,-122.280048 z m 73.12398,348.498158 4.06245,14.266 10.1561,22.41801 6.09367,20.38001 -2.03122,57.06402 -32.49955,-52.98802 2.03122,-12.22801 12.18733,-48.91201 z m -182.80994,4.076 6.09366,16.304 0,14.26601 -2.03122,22.41801 -16.24977,22.41801 4.06243,-28.53201 8.1249,-46.87402 z"
       style="opacity:1;fill:#f6e5ce;fill-opacity:1;fill-rule:evenodd;stroke:none;stroke-width:1px;stroke-linecap:butt;stroke-linejoin:miter;stroke-opacity:1" />
    <path
       inkscape:connector-curvature="0"
       id="path23398"
       d="m 597.90774,179.22999 -3.30725,31.28669 -34.01741,27.49437 -1.41739,-5.68849 2.8348,-14.22122 3.30724,-23.70204 -2.36233,-36.50116 -12.28406,-35.07902 8.50435,-45.507918 4.25218,-18.487594 24.09566,-24.650126 16.53625,-6.162531 24.56812,-13.747185 31.18262,-1.896164 24.09568,23.228002 25.98551,35.553067 10.86667,27.494374 2.83479,88.645635 8.50434,38.87136 -19.84348,-10.90295 -41.10436,-22.27992 -2.83479,-20.8578 -1.88985,-26.54629 13.22899,-8.05869 -4.25218,-20.8578 -20.31594,-15.1693 -7.55944,-17.065475 -8.03188,-6.636573 -26.93045,-9.006776 -12.28407,-13.273145 -18.42609,13.747185 -6.6145,6.162532 -5.1971,43.611742 1.88985,18.01356 8.97682,17.06548 z"
       style="fill:#524c44;fill-opacity:1;fill-rule:evenodd;stroke:none;stroke-width:1px;stroke-linecap:butt;stroke-linejoin:miter;stroke-opacity:1" />
    <g
       transform="matrix(1.1515592,0,0,1.1113543,447.6139,-77.137972)"
       id="layer1">
      <path
         inkscape:connector-curvature="0"
         id="path1349-2"
         style="fill:#000000"
         d="m 385.14,1178.4 c -2.91,-1.3 -7.57,-4.6 -10.36,-7.2 -2.78,-2.7 -5.76,-4.8 -6.61,-4.8 -3.17,0 -8.84,-3.8 -11.77,-7.9 -1.66,-2.3 -5.72,-9.3 -9.02,-15.6 -6.19,-11.7 -8.66,-14.3 -15.07,-15.8 -6.39,-1.5 -14.73,-7.8 -17.49,-13.1 -1.8,-3.5 -1.76,-11.7 0.07,-17.8 1.99,-6.5 1.82,-14.8 -0.41,-20.5 -1.02,-2.6 -3.04,-8.4 -4.48,-13 -5.86,-18.4 -20.34,-47.3 -44.02,-88.09 -13.48,-23.2 -16.42,-29.62 -20.57,-44.98 -1.86,-6.87 -2.08,-9.9 -1.88,-25.4 l 0.23,-17.6 -4.57,-7.58 c -2.51,-4.17 -6.16,-10.2 -8.11,-13.39 -7.93,-13 -17.2,-36.63 -22.23,-56.66 -8.25,-32.9 -17.72,-61.74 -26.39,-80.38 -4.87,-10.47 -11.82,-26.12 -13.97,-31.48 -4.07,-10.08 -5.17,-12.22 -6.02,-11.7 -0.45,0.28 -1.08,6.52 -1.4,13.86 -0.32,7.34 -1.05,18.13 -1.62,23.99 -2.72,27.96 -2.79,38.62 -0.38,60.05 2.89,25.61 2.87,27.63 -0.31,41.16 -1.45,6.13 -2.57,12.66 -2.51,14.53 0.2,5.69 2.2,15.59 4.69,23.24 5.47,16.83 6.57,40.87 2.91,63.92 -1.09,6.84 -1.73,18.1 -1.97,34.38 -0.2,13.32 -1.13,34.87 -2.07,47.93 l -1.71,23.6 2.96,11.2 c 1.62,6.2 4.79,16.9 7.04,23.8 6.96,21.5 5.59,24.6 -14.91,34.7 -7.27,3.5 -14.32,7.7 -15.69,9.1 -2.98,3.2 -5.75,8.5 -8.21,15.6 -3.94,11.5 -9.29,17.8 -16.83,19.8 -2.66,0.7 -6.79,2.4 -9.19,3.8 -2.4,1.4 -7.474,3.5 -11.282,4.6 l -6.924,2.1 -6.151,-2.9 c -8.784,-4.1 -11.494,-7.2 -11.453,-13.3 0.017,-2.6 -0.032,-6 -0.111,-7.6 -0.273,-5.6 1.749,-18.5 3.45,-22.1 2.029,-4.3 6,-7.8 11.89,-10.6 5.439,-2.6 12.41,-9.3 17.006,-16.5 1.965,-3.1 3.575,-5.8 3.575,-6 0,-0.3 2.13,-3.9 4.74,-8 2.61,-4.2 5.03,-8.9 5.37,-10.5 0.84,-4 -0.9,-17.5 -3.89,-30.3 -3.09,-13.1 -15.627,-64.39 -16.889,-69.03 -0.525,-1.92 -0.953,-4.78 -0.953,-6.35 0,-1.57 -0.919,-6.32 -2.042,-10.54 -4.435,-16.7 -7.057,-31.93 -9.659,-56.12 -1.08,-10.04 -0.391,-21.66 1.975,-33.34 1.137,-5.61 1.408,-9.39 0.866,-12.1 -0.434,-2.17 -1.906,-10.16 -3.27,-17.75 -1.645,-9.15 -3.755,-17.02 -6.256,-23.33 -2.075,-5.23 -9.078,-25.39 -15.561,-44.78 -13.039,-39.02 -11.559,-36.13 -26.932,-52.59 -6.32,-6.77 -9.172,-10.79 -12.442,-17.53 -2.333,-4.8 -5.704,-11.49 -7.491,-14.86 -5.0578,-9.55 -5.0671,-13.17 -0.053,-20.51 3.407,-4.98 8.058,-19.82 9.739,-31.06 1.255,-8.39 1.32,-14.17 0.44,-39.5 -2.438,-70.2 -0.635,-104.99 6.281,-121.19 5.32,-12.47 10.407,-26.83 11.783,-33.27 1.12,-5.25 1.652,-17.25 2.195,-49.54 0.653,-38.86 0.902,-43.4 2.826,-51.62 2.65,-11.32 7.548,-21.14 13.279,-26.63 4.625,-4.43 15.221,-10.77 22.7,-13.57 10.067,-3.77 12.861,-7.21 15.37,-18.9 0.602,-2.81 1.817,-6.5 2.701,-8.21 1.29,-2.49 1.594,-5.86 1.544,-17.14 -0.07,-15.78 -1.228,-21.8 -7.848,-40.83 -5.038,-14.48 -5.527,-18.52 -3.589,-29.62 0.86,-4.92 2.208,-15.16 2.995,-22.76 1.587,-15.3 3.402,-20.17 11.441,-30.68 9.99,-13.05 16.22,-17.384 49.22,-34.222 10.21,-5.205 28.79,-5.189 37.54,0.032 6.34,3.79 16.31,14.676 23.7,25.89 3.51,5.32 7.64,11.42 9.17,13.55 1.54,2.13 4.66,7.36 6.93,11.63 2.28,4.26 4.5,8.4 4.94,9.2 2.43,4.44 5.78,17.23 6.61,25.27 0.53,5.08 0.96,22.35 0.96,38.37 0.01,27.76 0.13,29.66 2.53,40.61 1.38,6.31 3.1,14.31 3.81,17.77 1.89,9.18 1.94,9.25 9.9,13.61 10.22,5.61 14.8,10.23 22.68,22.85 7.79,12.48 10.82,20.93 12.39,34.51 2.5,21.67 2.81,26.03 2.92,40.78 0.18,24.18 2.4,45.98 6.8,66.76 1.04,4.89 2.32,11.94 2.86,15.67 0.54,3.73 1.49,9.83 2.11,13.56 1.44,8.59 1.48,40.4 0.08,53.75 -1.17,11.06 -3.13,19.66 -9.04,39.61 -2.28,7.67 -4.61,18.56 -5.72,26.63 -1.03,7.51 -2.51,15.95 -3.28,18.76 -1.28,4.65 -1.24,5.72 0.46,12.19 3.54,13.52 5.52,29.47 4.76,38.4 -0.4,4.79 -0.28,10.24 0.29,13.04 0.54,2.65 0.72,8.33 0.39,12.62 -0.42,5.49 -0.07,11.11 1.18,18.92 1.42,8.82 1.83,17.47 2,42.09 0.34,48.57 1.35,62.89 5.41,77 2.51,8.7 3.39,12.68 4.47,20.34 3.63,25.62 4.44,28.97 8.53,35.25 5.45,8.37 13.31,26.29 15.46,35.24 0.99,4.11 2.69,10.52 3.8,14.25 2.25,7.59 4.57,20.78 5.45,30.99 1.04,12.02 2.61,25.07 6.46,53.73 2.26,16.8 4.89,32.8 6.23,37.9 2.68,10.2 8.85,23.6 15.26,33.1 9.05,13.5 10.42,15.1 23.66,28.2 15.1,14.9 17.24,19 16.84,32 -0.67,21.8 -1.67,26.8 -6.07,30.6 -3.23,2.8 -8.26,4.8 -11.97,4.8 -1.07,0 -4.32,-1.1 -7.22,-2.5 z m 15.34,-4.7 c 3.32,-3.3 2.26,-5 -5.45,-8.8 -9.2,-4.5 -15.14,-11.3 -11.19,-12.8 1,-0.4 2.64,0.8 4.85,3.5 2.37,2.8 4.09,4 5.89,4 2.52,0 2.51,0 -1.41,-4.1 -5.1,-5.3 -6.11,-9.8 -2.72,-12 1.31,-0.9 2.39,-2.4 2.39,-3.4 0,-0.9 0.87,-2.2 1.94,-2.8 1.11,-0.6 1.94,-2 1.94,-3.4 0,-3.8 2.04,-4 5.01,-0.4 2.02,2.4 2.73,2.8 2.73,1.6 0,-2.8 -2.85,-7.7 -7.08,-12.1 -4.86,-5 -6.72,-5.3 -6.29,-0.9 0.25,2.6 -0.05,3.2 -1.9,3.4 -1.88,0.3 -2.62,-0.6 -5.13,-6.3 -5.32,-12 -7.95,-16.8 -11.58,-21.4 -5.19,-6.6 -10.64,-15.4 -9.94,-16.1 0.33,-0.3 0.07,-0.6 -0.59,-0.6 -1.36,0 -7.65,-12.9 -10.68,-22 -3.36,-10 -9.49,-50.3 -13.08,-85.94 -2.08,-20.63 -4.16,-33.33 -6.89,-42.13 -1.24,-3.99 -2.56,-9.01 -2.95,-11.14 -1.72,-9.64 -12.13,-33.86 -14.24,-33.15 -0.64,0.21 -1.54,2.44 -2.01,4.96 -0.72,3.91 -1.14,4.53 -2.9,4.28 -1.99,-0.29 -2.09,-0.91 -2.72,-17.73 -0.35,-9.59 -1.11,-18.96 -1.69,-20.82 -0.58,-1.86 -1.05,-5.59 -1.05,-8.29 0,-4.47 -0.76,-7.95 -5.37,-24.64 -3.61,-13.04 -4.43,-24.06 -4.89,-65.86 -0.4,-36.39 -1.27,-53.26 -2.98,-57.72 -1.34,-3.48 -4.97,-0.34 -10.41,8.99 -1.91,3.3 -4.3,6.25 -5.29,6.57 -0.99,0.31 -3.36,2.09 -5.27,3.93 -1.9,1.85 -4.12,3.37 -4.93,3.37 -0.81,0 -2.99,-1.53 -4.86,-3.39 -1.86,-1.87 -3.81,-3.39 -4.32,-3.39 -0.51,0 -1.62,-0.69 -2.45,-1.52 -2.43,-2.43 -1.88,-9.66 1.35,-17.85 3.11,-7.87 3.82,-16.62 1.92,-23.49 -1.62,-5.82 -3.53,-4.33 -6.3,4.92 -2.44,8.17 -9.1,12.92 -13.06,9.33 -1.71,-1.54 -1.9,-3.01 -1.86,-14.4 0.01,-7.28 0.62,-15.36 1.41,-18.97 0.77,-3.47 1.4,-9.26 1.42,-12.89 0.06,-11.53 3.16,-22.11 9.27,-31.64 1.2,-1.88 2.65,-5.59 3.22,-8.26 0.96,-4.44 2.76,-34.05 2.78,-45.51 0,-2.67 0.29,-11.27 0.64,-19.12 l 0.64,-14.27 -3.33,-10.06 c -3.61,-10.92 -7.85,-20.2 -14.47,-31.71 -9.11,-15.84 -9.07,-16.67 3.12,-55.5 2.78,-8.87 4,-18.98 2.28,-18.96 -0.4,0 -3.17,2.1 -6.17,4.67 -11.23,9.61 -22.62,11.66 -37.65,6.75 -8.14,-2.66 -19.75,-10.48 -22.52,-15.16 -3.3,-5.59 1.26,-8.42 5.04,-3.12 3.06,4.3 12.68,10.26 21.1,13.06 4.14,1.38 8.23,2.5 9.1,2.5 1.96,0 10.73,-2.59 15.63,-4.61 3.79,-1.57 11.35,-8.95 11.37,-11.1 0,-0.68 1.08,-3.41 2.39,-6.08 4.34,-8.83 2.82,-22.32 -3.53,-31.11 -4.56,-6.31 -5.03,-7.92 -3.18,-10.74 1.16,-1.78 1.36,-3.37 0.81,-6.4 -1.27,-6.95 -0.18,-8.62 5.16,-7.97 4.89,0.6 5.21,1.14 5.05,8.61 -0.16,7.23 1.47,23.21 2.54,24.94 0.34,0.55 0.98,9.36 1.42,19.58 0.5,11.71 1.33,20.2 2.23,22.95 0.79,2.39 1.91,7.21 2.49,10.7 1.57,9.39 3.61,15.54 6.42,19.33 4.29,5.79 10.85,22.28 9.64,24.24 -0.76,1.22 -4.06,1.2 -4.82,-0.04 -2.06,-3.34 -2.39,0.78 -1.8,22.55 0.45,16.45 0.3,25.4 -0.5,29.78 -0.62,3.45 -1.32,10.62 -1.54,15.95 -0.22,5.32 -0.83,11.86 -1.36,14.53 -0.53,2.66 -1.2,14.43 -1.5,26.14 -0.62,24.44 -1.85,31.38 -6.86,38.73 -4.01,5.89 -7.26,17.23 -7.26,25.31 0,3.31 -1.12,10.22 -2.51,15.51 -2.03,7.74 -2.43,11.16 -2.12,18 0.41,9.13 0.92,10.44 3.46,8.86 2.62,-1.64 8.23,-20.59 9.8,-33.16 0.49,-3.84 1.4,-7.62 2.04,-8.39 2.3,-2.76 3.02,-0.3 2.4,8.12 -0.55,7.49 -0.35,9.14 1.93,15.64 1.68,4.77 2.74,10.25 3.1,15.98 0.51,7.95 0.32,9.29 -2.1,15.35 -2.81,7.01 -4.24,14.24 -2.81,14.12 0.85,-0.08 8.15,-14.35 10.11,-19.79 0.58,-1.59 1.43,-7.62 1.9,-13.38 0.89,-10.92 3.09,-17.61 5.79,-17.61 1.08,0 1.43,1.07 1.37,4.12 -0.05,2.26 0.04,4.11 0.2,4.11 0.15,0 1.45,-1.17 2.88,-2.6 l 2.6,-2.6 1.71,2.12 c 1.94,2.39 3.36,2.68 4.47,0.91 1.34,-2.15 2.11,-13.66 1.25,-18.65 -0.46,-2.66 -1.53,-8.95 -2.38,-13.97 -0.85,-5.02 -2.83,-12.15 -4.4,-15.84 -3.63,-8.51 -3.63,-10.21 -0.04,-11.46 3.29,-1.15 3.57,-2 5.03,-15.52 0.69,-6.43 2.91,-16.47 6.18,-27.95 7.24,-25.4 8.02,-29.45 9.31,-48.2 1.77,-25.63 0.15,-46.52 -5.8,-74.83 -3.36,-16 -4.9,-31.53 -6.39,-64.51 -1.57,-34.66 -2.51,-43.99 -5.37,-53.38 -2.19,-7.19 -2.53,-7.87 -9.47,-19.11 -6.76,-10.96 -10.57,-15.02 -17.85,-19.07 -3.17,-1.76 -6.7,-3.77 -7.85,-4.47 -2.59,-1.56 -11.01,-0.91 -17.1,1.32 -11.23,4.12 -18.13,5.37 -32.66,5.94 -15.78,0.61 -18.64,0.01 -16.74,-3.56 0.8,-1.48 2.82,-1.77 15.24,-2.18 11.32,-0.37 16.43,-1.01 24.48,-3.09 5.59,-1.44 10.82,-3.27 11.62,-4.07 1.46,-1.46 0.64,-2.49 -6.51,-8.17 -3.81,-3.02 -13.22,-7.76 -17.18,-8.65 -6.38,-1.43 -9.13,-3.02 -14.48,-8.41 -6.01,-6.05 -7.8,-10.19 -9.73,-22.59 -0.88,-5.59 -2.14,-10.72 -2.8,-11.39 -0.98,-0.99 -2.34,-0.36 -6.97,3.25 -12.12,9.43 -26.72,15.22 -40.63,16.12 l -3.87,0.26 -0.72,8.23 c -1.91,21.87 -1.88,21.75 -5.08,22.12 -1.65,0.18 -4.55,1.86 -6.78,3.9 -2.14,1.97 -7.04,5.74 -10.9,8.39 -3.86,2.64 -7.02,5.35 -7.02,6 -0.01,0.9 5.07,1.26 20.56,1.45 18.68,0.24 20.6,0.42 20.89,1.96 0.55,2.83 -3.26,3.42 -24.4,3.78 l -20.13,0.34 -2.292,-2.67 c -2.229,-2.59 -5.616,-3.52 -6.661,-1.82 -0.284,0.46 -4.123,2.26 -8.531,4.01 -19.847,7.88 -27.299,16.3 -31.865,36.01 -1.922,8.3 -2.11,12.07 -2.352,47.27 -0.288,41.93 -1.348,53.76 -5.888,65.73 -1.341,3.53 -3.475,9.35 -4.742,12.92 -1.267,3.58 -2.928,7.72 -3.69,9.2 -6.409,12.48 -7.655,37.31 -6.407,127.64 0.388,28.02 0.234,32.85 -1.249,39.22 -2.039,8.76 -8.068,24.67 -10.71,28.26 -2.606,3.55 -1.76,7.07 4.021,16.73 2.565,4.28 5.49,9.97 6.502,12.63 1.221,3.21 4.104,7.19 8.591,11.86 3.714,3.87 7.078,7.03 7.476,7.03 1.598,0 -2.552,-7.5 -6.683,-12.08 -5.355,-5.93 -6.548,-8.65 -8.975,-20.44 -1.04,-5.06 -2.334,-10.03 -2.874,-11.04 -2.495,-4.66 0.259,-8.61 3.781,-5.42 1.81,1.64 3.735,7.72 5.918,18.71 0.661,3.32 1.765,6.81 2.454,7.75 2.515,3.41 2.754,-1.67 0.578,-12.26 -2.206,-10.74 -2.695,-26.23 -1.163,-36.89 0.646,-4.49 4.987,-25.49 8.612,-41.64 1.264,-5.64 1.901,-13.43 3.087,-37.77 0.681,-13.99 1.559,-22.29 2.974,-28.09 2.082,-8.54 8.65,-22.1 15.48,-31.96 2.675,-3.86 4.099,-7.32 5.179,-12.59 0.819,-3.99 2.147,-9.66 2.949,-12.59 3.452,-12.6 7.398,-33.18 7.986,-41.66 0.464,-6.7 0.312,-7.52 -1.867,-10.17 -3.762,-4.58 -9.155,-14.09 -10.848,-19.14 -3.044,-9.08 -0.858,-26.57 4.693,-37.55 2.289,-4.53 2.602,-6.11 2.208,-11.18 -0.508,-6.51 0.386,-9.11 3.138,-9.11 1.886,0 2.287,1.14 3.478,9.84 0.526,3.84 0.117,5.62 -2.782,12.1 -4.27,9.55 -6.913,22.18 -6.031,28.83 0.708,5.34 4.774,13.73 9.338,19.26 3.516,4.27 8.119,5.72 18.357,5.81 6.21,0.05 8.28,-0.39 13.56,-2.87 3.43,-1.61 9.16,-5.18 12.74,-7.92 7.08,-5.45 8,-5.8 8.91,-3.41 0.91,2.35 -1.72,5.71 -8.22,10.49 -9.36,6.89 -15.07,9.24 -24.26,10.01 l -8.113,0.67 0.309,14.53 c 0.257,12.12 -0.014,15.75 -1.636,21.95 -3.489,13.34 -8.467,22.08 -20.101,35.32 -3.81,4.33 -8.706,10.88 -10.88,14.54 -8.229,13.85 -9.131,18.95 -11.694,66.19 -0.477,8.79 -1.324,17.17 -1.883,18.62 -0.559,1.45 -1.687,6.46 -2.506,11.14 -0.82,4.67 -2.588,13.29 -3.93,19.15 -3.348,14.63 -4.015,28.46 -1.935,40.19 0.897,5.06 2.211,12.69 2.919,16.95 1.581,9.51 2.628,13.57 5.755,22.28 1.34,3.72 2.447,8.75 2.46,11.16 0.032,5.63 0.808,8.29 12.434,42.59 11.405,33.64 16.019,45.5 21.716,55.83 7.255,13.14 8.055,16.8 3.676,16.8 -1.629,0 -1.966,0.63 -1.96,3.63 0.012,5.8 3.424,15.47 6.937,19.67 1.774,2.13 5.11,5.81 7.412,8.18 5.16,5.33 5.14,7.87 -0.05,7.47 -3.529,-0.28 -3.541,-0.27 -3.007,3.02 1.087,6.69 -3.373,5.55 -7.598,-1.93 -2.381,-4.22 -3.209,-5.02 -4.294,-4.12 -1.865,1.55 -1.818,18.86 0.085,31.39 0.809,5.33 2.113,14.04 2.9,19.37 0.786,5.33 2.326,13.39 3.423,17.92 1.097,4.52 2.648,11.5 3.448,15.49 2.745,13.71 9.523,43.34 11.623,50.87 0.75,2.6 2.21,8.5 3.24,13.1 1.04,4.5 3.09,13.2 4.57,19.3 2.28,9.5 2.68,13.2 2.67,24.7 -0.03,16.3 -0.72,20.8 -3.21,20.8 -0.97,0 -2.32,-0.6 -2.99,-1.4 -1.63,-2 -2.96,-0.8 -7.41,6.6 -5.871,9.9 -11.113,15.3 -19.4,20.2 -4.76,2.8 -8.144,5.6 -8.869,7.2 -1.242,2.7 -1.42,2.6 3.149,0.8 1.483,-0.6 6.395,4.1 6.395,6.1 0,2.6 -2.982,8.3 -6.766,13 -5.167,6.5 -4.944,8.4 0.263,2.3 8.977,-10.6 10.18,-11.7 11.451,-10.5 1.516,1.5 0.384,4.2 -4.505,10.6 -2.104,2.7 -3.098,4.8 -2.439,5 1.58,0.5 7.191,-3.5 9.364,-6.8 1.938,-2.8 3.878,-4 5.268,-3.2 2.339,1.5 -3.569,9.4 -10.129,13.6 -6.013,3.8 -7.757,5.7 -6.995,7.7 1.432,3.8 7.144,2.7 18.653,-3.5 3.79,-2.1 7.65,-3.7 8.58,-3.7 3.17,0 8.8,-4 11.35,-8.1 2.69,-4.3 5.27,-10.9 8.9,-22.9 1.2,-4 3.1,-9 4.21,-11.2 2.61,-5 7.72,-10.1 10.08,-10.1 2.41,0 3.39,2.6 1.88,5 -0.66,1.1 -0.95,2.2 -0.66,2.5 0.83,0.8 9.28,-2.6 14.46,-5.9 7.64,-4.8 7.98,-8.7 2.17,-24.9 -3.43,-9.7 -5.38,-12 -5.44,-6.6 -0.04,3.9 -2.24,14.5 -3.4,16.4 -0.46,0.7 -0.72,2.7 -0.58,4.3 0.15,1.8 -0.34,3.5 -1.19,4.2 -1.19,1 -1.7,0.8 -2.9,-1 -1.29,-2 -1.3,-3.2 -0.06,-10 1.86,-10.2 1.85,-18.6 -0.01,-24.8 -2.29,-7.7 -2,-12.1 1,-14.9 2.38,-2.2 2.59,-3.2 3.87,-18.1 1.22,-14.3 3.02,-59.25 2.96,-73.93 -0.01,-3.2 0.73,-10.83 1.65,-16.95 2.68,-17.9 3.06,-31.78 1.2,-44.37 -1.51,-10.19 -5.4,-23.62 -7.49,-25.84 -1.69,-1.78 -2.73,1.78 -2.75,9.36 -0.02,8.72 -0.53,10.49 -3.05,10.49 -2.65,0 -3.51,-3.17 -3.29,-12.11 0.14,-5.78 0.83,-9.34 2.73,-14.04 1.39,-3.46 3.9,-11.09 5.58,-16.95 4.29,-15.02 4.63,-24.41 1.84,-51.39 -2.24,-21.65 -2.24,-21.85 -0.59,-41.35 2.64,-31.23 3.81,-57.38 3.06,-68.34 l -0.69,-10.16 -7.89,-8.32 c -4.33,-4.58 -9.41,-9.99 -11.27,-12.03 -3.6,-3.94 -15.8,-21.24 -19.82,-28.11 -1.32,-2.25 -7.42,-9.43 -13.55,-15.95 -12.859,-13.68 -13.942,-15.26 -11.862,-17.34 0.937,-0.93 1.962,-1.15 2.914,-0.61 4.146,2.35 24.978,26.25 32.338,37.11 4.53,6.68 9.46,13.89 10.96,16.02 4.24,6.01 17.39,19.1 18.69,18.6 0.64,-0.24 1.72,-2.49 2.38,-4.99 2.52,-9.39 17.11,-27.19 21.74,-26.51 3.6,0.54 2.95,2.36 -3.41,9.52 -9.88,11.12 -12.38,15.92 -12.99,24.94 -0.44,6.35 -0.19,8.36 1.48,12.14 1.1,2.49 3.37,9.38 5.05,15.3 1.68,5.92 5.19,15.51 7.81,21.31 2.61,5.8 4.76,10.79 4.76,11.1 0,0.31 2.14,5 4.77,10.42 5.51,11.37 13.86,32.92 16.59,42.78 1.03,3.73 2.78,9.84 3.88,13.56 2.17,7.34 3.03,10.51 7.58,27.88 6.82,26.03 16.55,49.08 27.36,64.82 0.99,1.44 1.8,2.96 1.8,3.39 0,0.42 1.61,2.5 3.58,4.64 3.77,4.09 10.9,18.8 10.93,22.54 0.02,3.24 -2.82,3.91 -5.02,1.19 -3.11,-3.84 -3.95,-1.31 -3.45,10.32 0.74,17.08 6.45,32.58 20.47,55.53 2.44,3.99 6.68,11.62 9.42,16.95 2.74,5.32 5.75,10.77 6.69,12.1 2.17,3.08 18.08,34.78 22.58,45.08 1.87,4.2 5.16,12.9 7.31,19.3 6.77,20.2 7.52,22.1 12.1,31.2 4.51,8.9 5.23,11.3 3.61,12.4 -1.83,1.1 -4.13,-0.9 -6.51,-5.6 -2.25,-4.4 -2.59,-4.7 -4.01,-3.3 -0.95,1 -1.71,3.9 -1.98,7.5 -0.39,5.4 -0.21,6.1 2.33,8.8 3.14,3.2 10.2,7.6 12.35,7.6 2.14,0 2.46,-2 0.83,-5.5 -2.74,-5.8 0.93,-8.4 4.61,-3.3 2.64,3.8 4.69,8.7 6.98,17 2.04,7.3 11.32,24.5 15.5,28.6 1.44,1.5 4.61,3.2 7.04,3.8 3.16,0.8 5.79,2.5 9.24,5.9 9.1,9 16.69,10.9 22.18,5.4 z M 296.98,887.96 c -0.9,-1.1 -0.74,-2.49 0.75,-6.49 2.26,-6.06 4.3,-7.77 6.56,-5.51 1.42,1.42 1.37,1.97 -0.6,6.56 -2.42,5.63 -4.89,7.63 -6.71,5.44 z m -23.35,-5.56 c -7.5,-7.73 -12.13,-21.67 -8.26,-24.88 2.32,-1.92 4.47,0.3 4.49,4.63 0.01,4.87 3.84,12.47 8.59,17.02 4.61,4.43 5.23,7.31 1.56,7.31 -1.57,0 -3.8,-1.43 -6.38,-4.08 z m -165.55,-5.52 c -2.34,-1.98 -2.35,-2.05 -0.51,-3.47 1.03,-0.8 2.87,-1.46 4.08,-1.46 3.4,0 4.26,-2.91 3.98,-13.47 -0.21,-8.04 0.02,-9.96 1.39,-11.34 3.09,-3.1 4.3,-0.37 5.01,11.27 0.5,8.3 0.34,11.25 -0.73,13.32 -3.22,6.23 -9.19,8.55 -13.22,5.15 z m 75.87,-262.19 c -0.88,-2.3 0.96,-4.66 3.92,-5.01 2.13,-0.26 2.56,0.07 2.56,1.98 0,4.15 -5.13,6.55 -6.48,3.03 z m 20.69,-44.34 c -0.3,-0.76 0.35,-3.71 1.42,-6.54 1.08,-2.84 2.37,-6.53 2.87,-8.2 1.25,-4.21 3.31,-5.82 5.31,-4.15 1.07,0.89 1.37,2.17 0.97,4.23 -0.68,3.5 -4.36,13.1 -5.69,14.83 -1.25,1.63 -4.23,1.53 -4.88,-0.17 z M 84.35,560.88 c -3.558,-4.2 -9.365,-16.79 -8.982,-19.48 0.214,-1.51 0.973,-2.12 2.635,-2.12 1.967,0 2.778,1.05 5.159,6.67 1.554,3.67 3.92,8.33 5.256,10.35 4.346,6.57 0.903,10.44 -4.068,4.58 z m 49.021,-27.49 c -3.55,-2.99 -3.88,-6.44 -0.83,-8.58 2.71,-1.9 4.92,-1.9 8.55,-0.03 3.47,1.8 3.91,6.19 0.92,9.18 -2.6,2.6 -5.07,2.44 -8.64,-0.57 z m 74.59,-56.49 c -1.05,-0.67 -1.21,-2.26 -0.72,-6.97 0.92,-8.8 6.3,-18.29 10.37,-18.29 2.84,0 2.83,2.54 -0.03,7.05 -1.51,2.39 -3.29,6.89 -3.97,10.02 -1.87,8.71 -2.77,10.01 -5.65,8.19 z M 83.681,401.52 c -1.453,-0.9 -2.829,-2.12 -3.058,-2.72 -0.68,-1.77 0.996,-3.63 3.43,-3.81 1.918,-0.14 2.221,-0.62 1.966,-3.11 -0.35,-3.41 1.488,-4.58 5.059,-3.23 2.903,1.11 3.584,2.2 3.69,5.93 0.055,1.94 -0.722,3.74 -2.245,5.21 -3.24,3.14 -5.761,3.63 -8.842,1.73 z m 133.63,-2.26 c -0.94,-0.54 -1.7,-1.51 -1.69,-2.15 0.01,-3.01 2.24,-8.65 4.47,-11.3 4.37,-5.18 8.15,-3.08 8.08,4.51 -0.03,3.86 -1.97,6.98 -5.51,8.88 -2.5,1.33 -3.15,1.34 -5.35,0.06 z m -67.62,-107.49 c -1.65,-1.64 -1.79,-2.26 -0.78,-3.47 0.78,-0.93 2.15,-1.28 3.77,-0.96 1.8,0.36 3.81,-0.33 6.83,-2.33 5,-3.32 10.02,-3.79 11.47,-1.07 1.09,2.03 -0.29,4.03 -2.77,4.03 -0.83,0 -3.9,1.29 -6.83,2.86 -6.35,3.42 -9,3.63 -11.69,0.94 z m 4.21,-11.57 c -2.22,-0.89 -3.84,-4.9 -2.73,-6.71 0.35,-0.56 1.98,-1.02 3.62,-1.02 4.33,0 5.81,-2.31 11.52,-17.92 3.64,-9.98 6.14,-14.04 8.61,-14.04 2.6,0 2.51,2.36 -0.33,8.84 -1.25,2.86 -3.24,8.11 -4.41,11.67 -3.07,9.31 -7.52,17.05 -10.77,18.73 -1.53,0.79 -2.91,1.41 -3.07,1.37 -0.16,-0.03 -1.26,-0.45 -2.44,-0.92 z m -13.1,-18.14 c -0.82,-0.93 -2.71,-5.75 -4.18,-10.7 -2.51,-8.41 -2.58,-9.11 -1.07,-10.62 1.41,-1.41 1.78,-1.44 2.91,-0.2 1.43,1.57 3.51,7.09 5.96,15.85 1.31,4.68 1.37,5.86 0.32,6.52 -1.81,1.15 -2.24,1.06 -3.94,-0.85 z m 255.58,887.44 c -0.31,-0.9 -1.02,-1.5 -1.58,-1.5 -0.64,0 -0.57,0.7 0.18,1.9 1.33,2.1 2.27,1.8 1.4,-0.4 z m 4.56,-6.9 c -0.59,-1.5 -2.29,-2 -2.29,-0.6 0,1 1.06,2.1 2.07,2.1 0.43,0 0.53,-0.7 0.22,-1.5 z m -320.91,-21.8 c 0,-1.8 -1.764,-0.9 -4.279,2.1 -3.444,4.1 -2.014,5.9 1.528,2 1.513,-1.7 2.751,-3.5 2.751,-4.1 z m 187.45,-409.69 c 0.58,-2.88 2.48,-7.73 4.2,-10.77 2.04,-3.59 3.33,-7.4 3.69,-10.89 0.64,-6.22 -1.15,-7.63 -2.22,-1.75 -0.75,4.14 -5.55,16.71 -7.59,19.9 -0.75,1.18 -1.45,3.01 -1.56,4.07 -0.71,7.27 1.97,6.84 3.48,-0.56 z m 12.05,-10.69 c 0,-0.53 -0.43,-0.7 -0.97,-0.37 -0.53,0.33 -0.97,1.03 -0.97,1.57 0,0.53 0.44,0.7 0.97,0.37 0.54,-0.33 0.97,-1.04 0.97,-1.57 z m 10.64,-17.62 c 0.01,-2.56 -0.36,-4.42 -0.83,-4.14 -1.15,0.72 -2.2,7.8 -1.44,9.77 1.03,2.68 2.25,-0.36 2.27,-5.63 z m -7.37,-4.85 c 0.42,-3.73 0.3,-5.43 -0.35,-5.03 -0.54,0.34 -0.98,3.06 -0.98,6.04 0,6.75 0.5,6.37 1.33,-1.01 z m -26.93,-208.59 c -1.16,-13.86 -2.11,-19.6 -4.86,-29.26 -1.88,-6.61 -3.67,-12.26 -3.97,-12.56 -0.96,-0.96 -2.24,2.02 -6.37,14.81 -2.37,7.36 -4.22,15.17 -4.5,18.98 -0.44,6.23 -0.29,6.8 3.96,14.72 2.43,4.54 5.7,10.16 7.26,12.5 1.56,2.33 3.17,5.34 3.57,6.67 0.41,1.33 1.88,4.6 3.27,7.26 l 2.54,4.84 0.28,-10.36 c 0.15,-5.7 -0.38,-18.12 -1.18,-27.6 z m -171.85,-1.85 c 3.814,-8.24 5.675,-16.93 5.578,-26.04 -0.088,-8.3 -1.122,-13.69 -2.136,-11.14 -0.318,0.8 -2.126,9.1 -4.018,18.44 -1.892,9.35 -3.872,18.5 -4.399,20.34 -0.527,1.83 -0.958,4.16 -0.958,5.16 0,3.12 2.869,-0.14 5.933,-6.76 z m 26.688,-199.16 c 10.4,-8.4 13.87,-13.16 13.87,-19.02 0,-2.53 0.46,-7.1 1.03,-10.16 0.56,-3.07 0.73,-6.91 0.37,-8.55 -0.35,-1.63 -3.5,-7.15 -6.98,-12.27 -11.68,-17.17 -16.93,-32.08 -14.79,-42.04 0.55,-2.57 0.74,-6.3 0.42,-8.29 -0.89,-5.57 1.25,-23.5 3.53,-29.59 1.79,-4.78 2.92,-6.11 9.16,-10.72 8.18,-6.05 11.62,-11.11 13.14,-19.34 1.41,-7.65 0.86,-8.816 -3.2,-6.73 -1.74,0.89 -3.39,1.91 -3.65,2.27 -0.27,0.36 -2.51,2.04 -4.99,3.72 -4.59,3.13 -7.89,6.82 -14.03,15.76 -5.254,7.63 -6.067,10.37 -7.666,25.84 -0.812,7.86 -2.126,18.1 -2.92,22.75 -1.648,9.66 -1.075,13.09 4.887,29.31 5.289,14.38 6.699,22.45 6.749,38.74 0.05,13.55 -0.13,15 -2.61,21.6 -2.99,7.94 -3.459,12.78 -1.24,12.78 0.78,0 4.8,-2.73 8.92,-6.06 z m 128.98,-16.37 -3.26,-13.89 -0.07,-31.96 c -0.07,-35.84 -0.56,-42.42 -3.91,-52.69 -2.55,-7.84 -10.61,-23.68 -14.81,-29.11 -1.46,-1.88 -5.53,-7.78 -9.05,-13.11 -6.91,-10.46 -15.95,-20.373 -22.17,-24.302 -11.71,-7.39 -32.37,-3.327 -41.3,8.119 -3.43,4.387 -8.93,15.143 -8.91,17.423 0.02,3.23 4.57,11.4 8.05,14.46 3.72,3.26 6.69,4.32 17.32,6.13 8.92,1.53 13.85,6.21 16.7,15.85 2.43,8.21 5.52,12.25 12.29,16.08 7.24,4.09 12.81,10.84 14.4,17.46 0.72,3.02 0.89,11.81 0.51,26.68 -0.61,23.86 0.33,33.17 3.91,38.62 1.13,1.73 4.4,3.98 8.62,5.93 3.74,1.73 10.51,5.56 15.03,8.51 4.63,3.01 8.6,4.99 9.07,4.52 0.47,-0.47 -0.59,-6.92 -2.42,-14.72 z m -40.19,-30.11 c -0.25,-23.32 -0.08,-21.07 -1.56,-21.05 -3.22,0.04 -3.85,1.74 -4.15,11.24 -0.45,13.71 0.45,22.99 2.57,26.47 0.98,1.62 2.14,2.95 2.57,2.95 0.42,0 0.68,-8.83 0.57,-19.61 z m -52.53,6.59 c 8.03,-1.7 16.73,-6.01 25.77,-12.76 7.74,-5.78 9.27,-8.07 11.38,-17.03 1.86,-7.87 1.96,-7.38 -1.67,-7.73 -4.36,-0.42 -4.44,-2.58 -0.37,-9.25 5.28,-8.65 5.29,-9.66 0.09,-15.06 -2.53,-2.62 -5.72,-7.46 -7.36,-11.14 -6.74,-15.11 -6.69,-15.06 -17.61,-17.15 -10.4,-1.99 -15.64,-4.73 -20.24,-10.57 -2.13,-2.71 -4.26,-5.07 -4.73,-5.25 -0.46,-0.17 -4.74,2.79 -9.49,6.59 -9.45,7.55 -11.22,10.39 -12.33,19.86 -0.74,6.3 0.41,8.25 4.84,8.26 3.59,0 9.33,3.24 9.33,5.26 0,0.78 -0.73,1.82 -1.61,2.31 -1.45,0.82 -1.42,1 0.33,1.94 1.47,0.79 2.44,0.69 3.99,-0.39 1.88,-1.32 2.17,-1.24 3.59,0.91 2.22,3.4 1.68,16.44 -0.7,16.89 -1.11,0.21 -1.87,-0.5 -2.28,-2.13 -0.89,-3.57 -2.98,-4.86 -7.42,-4.6 -3.12,0.19 -4.48,-0.29 -6.59,-2.31 -1.75,-1.68 -2.89,-2.18 -3.33,-1.47 -3.05,4.94 -2.13,15.4 2.18,24.55 4.22,9 17.47,28.6 20.4,30.19 3.25,1.77 5.82,1.78 13.83,0.08 z m -14.45,-11.39 c -2.65,-2.64 -1.23,-3.46 5.78,-3.32 7.61,0.14 9.63,1.64 4.58,3.41 -4.06,1.41 -8.91,1.37 -10.36,-0.09 z m -8.57,-7.48 c -1.15,-0.5 -2.32,-1.28 -2.6,-1.74 -2.55,-4.13 15.5,-9 20.46,-5.53 1.49,1.05 3.13,1.32 5.18,0.87 3.56,-0.78 7.61,1.06 7.61,3.46 0,1.16 -1.08,1.82 -3.63,2.21 -7.32,1.13 -25,1.61 -27.02,0.73 z m 2.56,-13.31 c -2.57,-1.02 -4.84,-3.48 -4.84,-5.25 0,-2.76 1.9,-3.19 4.25,-0.98 2.59,2.43 6.55,2.62 9.82,0.48 1.49,-0.98 3.29,-1.33 4.83,-0.95 1.84,0.46 2.58,0.19 2.99,-1.1 1.72,-5.46 2.35,-6.29 3.8,-5.09 1.74,1.45 1.88,7.74 0.22,9.89 -0.7,0.89 -3.29,1.79 -6.06,2.09 -2.66,0.3 -6.8,0.75 -9.2,1.01 -2.39,0.26 -5.01,0.22 -5.81,-0.1 z m 18.84,-20.73 c -0.34,-0.56 -0.36,-2.47 -0.02,-4.24 0.43,-2.33 1.33,-3.5 3.24,-4.22 4.41,-1.68 9.22,-2.12 13.17,-1.2 7.83,1.81 7.15,4.89 -1.84,8.24 -6.28,2.34 -13.54,3.05 -14.55,1.42 z m -5.89,-12.99 c -0.87,-2.27 0.44,-3.21 6.76,-4.86 10.12,-2.63 18.06,-1.67 18.06,2.18 0,1.03 -1.24,1.17 -5.67,0.67 -5.16,-0.58 -11.04,0.47 -17.33,3.11 -0.66,0.27 -1.48,-0.22 -1.82,-1.1 z m 58.06,27.38 c 1.18,-2.43 1.47,-4.12 0.88,-5.17 -0.75,-1.35 -1.24,-1.13 -3.45,1.5 -3.01,3.57 -3.54,8.07 -0.89,7.58 0.94,-0.17 2.49,-1.93 3.46,-3.91 z m -78.88,-24.64 2.3,-0.62 -2.3,-1.27 c -1.26,-0.7 -3.44,-1.29 -4.84,-1.31 -2.59,-0.04 -5.23,2.04 -4.07,3.2 0.81,0.81 5.9,0.8 8.91,0 z" />
    </g>
    <path
       sodipodi:nodetypes="cccccccccccc"
       inkscape:connector-curvature="0"
       id="path23405"
       d="m 504.40868,528.16933 c 36.61638,25.92493 57.09692,67.80808 84.35186,96.79931 14.40983,7.35086 35.49686,38.03206 48.96638,17.30899 6.70946,-14.69328 13.9591,-29.55663 28.28826,-38.32089 18.96327,-13.11796 37.86737,-26.36014 57.108,-39.05405 17.66488,-8.90208 22.24775,-26.09759 19.91002,-44.23458 1.05238,-10.57533 -0.94764,-31.80187 -17.32276,-20.31733 -20.36232,6.5885 -39.51123,16.46998 -59.97784,22.54346 -25.01695,4.61264 -50.98214,11.25519 -76.32164,7.35727 -19.47172,-5.01149 -38.92514,-9.72766 -56.98768,-18.92608 -11.11652,-7.71181 -25.433,-21.25308 -25.02203,2.67859 -0.8304,4.84267 -4.17668,9.67747 -2.99257,14.16531 z"
       style="fill:#dbdbdb;fill-opacity:1;fill-rule:evenodd;stroke:#000000;stroke-width:5.08652115;stroke-linecap:round;stroke-linejoin:round;stroke-miterlimit:4;stroke-dasharray:none;stroke-opacity:1" />
    <path
       sodipodi:nodetypes="cccccccccccccccc"
       inkscape:connector-curvature="0"
       id="path23410"
       d="m 533.42975,248.38407 c 16.11398,15.40021 17.76994,47.95811 16.09725,69.51122 -7.81158,16.21012 -29.98286,17.92817 -22.678,40.13793 -0.88109,21.39256 31.17128,38.00898 49.48145,30.87648 17.01081,-6.38958 27.31653,-21.93774 39.10259,-33.36966 13.36413,0.27026 33.14831,-12.45107 33.67392,9.45493 12.40584,17.8301 22.94735,20.74964 37.00355,23.24924 53.18945,11.23698 68.09404,-34.2177 35.1167,-66.01101 -24.18938,-17.80332 -7.33894,-78.95128 2.60368,-93.5039 0.40806,-15.22332 -13.91658,-7.66835 -14.91439,3.28692 -5.25602,23.03058 -9.13217,46.74584 -14.17323,70.15941 -4.98899,14.32762 -11.07703,40.23445 -42.35595,39.81097 -23.70929,2.2487 -30.88284,5.93547 -48.35019,4.36196 -24.07316,4.714 -44.76911,-32.10075 -41.30682,-55.3769 -2.48183,-15.04905 -5.37117,-45.53863 -20.82238,-47.86831 -2.98601,1.43814 -6.36794,2.51467 -8.47818,5.28072 z"
       style="fill:#dbdbdb;fill-opacity:1;fill-rule:evenodd;stroke:#000000;stroke-width:5.08652115;stroke-linecap:round;stroke-linejoin:round;stroke-miterlimit:4;stroke-dasharray:none;stroke-opacity:1" />
  </g>
</svg>
